<svg xmlns="http://www.w3.org/2000/svg" width="494" height="279" fill="none">
  <text xml:space="preserve" fill="#000" font-family="TeX Gyre Schola" font-size="7" font-weight="bold" letter-spacing="0em" style="white-space:pre"><tspan x="58.4" y="41.3">Location</tspan></text>
  <text xml:space="preserve" fill="#000" font-family="TeX Gyre Schola" font-size="7" letter-spacing="0em" style="white-space:pre"><tspan x="4.3" y="52.3">Strategically situated on Letjen. S. Parman </tspan><tspan x="5.3" y="63.3">Rd., the site accommodates schools, offices, </tspan><tspan x="49.6" y="74.3">and residences.</tspan></text>
  <text xml:space="preserve" fill="#000" font-family="TeX Gyre Schola" font-size="7" font-weight="bold" letter-spacing="0em" style="white-space:pre"><tspan x="219.6" y="41.3">Hawker center</tspan></text>
  <text xml:space="preserve" fill="#000" font-family="TeX Gyre Schola" font-size="7" letter-spacing="0em" style="white-space:pre"><tspan x="176.6" y="52.3">Organizing a centralized Hawker Center to </tspan><tspan x="178.7" y="63.3">accommodate and relocate informal street </tspan><tspan x="186.6" y="74.3">vendors from Tomang, West Jakarta.</tspan></text>
  <text xml:space="preserve" fill="#000" font-family="TeX Gyre Schola" font-size="7" font-weight="bold" letter-spacing="0em" style="white-space:pre"><tspan x="380.6" y="41.3">Supporting functions</tspan></text>
  <text xml:space="preserve" fill="#000" font-family="TeX Gyre Schola" font-size="7" letter-spacing="0em" style="white-space:pre"><tspan x="348.6" y="52.3">Integrating vital supporting functions, such </tspan><tspan x="350.8" y="63.3">as public spaces and green areas, to tackle </tspan><tspan x="383.3" y="74.3">the district’s shortage.</tspan></text>
  <text xml:space="preserve" fill="#000" font-family="TeX Gyre Schola" font-size="7" font-weight="bold" letter-spacing="0em" style="white-space:pre"><tspan x="204.9" y="142">Multifunctional design</tspan></text>
  <text xml:space="preserve" fill="#000" font-family="TeX Gyre Schola" font-size="7" letter-spacing="0em" style="white-space:pre"><tspan x="179.8" y="153.3">Creating flexible areas capable of serving </tspan><tspan x="187.3" y="164.3">multiple functions, ensuring optimal </tspan><tspan x="228.7" y="175.3">utilization.</tspan></text>
  <text xml:space="preserve" fill="#000" font-family="TeX Gyre Schola" font-size="7" font-weight="bold" letter-spacing="0em" style="white-space:pre"><tspan x="386.7" y="142">Temporary kiosks</tspan></text>
  <text xml:space="preserve" fill="#000" font-family="TeX Gyre Schola" font-size="7" letter-spacing="0em" style="white-space:pre"><tspan x="354.7" y="153.3">Utilizing easily assembled materials for </tspan><tspan x="349.9" y="164.3">temporary street vendor kiosks, enhancing </tspan><tspan x="368.8" y="175.3">adaptability for various events.</tspan></text>
  <text xml:space="preserve" fill="#000" font-family="TeX Gyre Schola" font-size="7" font-weight="bold" letter-spacing="0em" style="white-space:pre"><tspan x="311.6" y="243.3">Circulation</tspan></text>
  <text xml:space="preserve" fill="#000" font-family="TeX Gyre Schola" font-size="7" letter-spacing="0em" style="white-space:pre"><tspan x="258.4" y="254.3">Creating a clear axis from the arterial road to </tspan><tspan x="275.1" y="265.3">Gelong Rd. for easy orientation and </tspan><tspan x="310.6" y="276.3">maintenance.</tspan></text>
  <text xml:space="preserve" fill="#000" font-family="TeX Gyre Schola" font-size="7" font-weight="bold" letter-spacing="0em" style="white-space:pre"><tspan x="41.2" y="142">Educational space</tspan></text>
  <text xml:space="preserve" fill="#000" font-family="TeX Gyre Schola" font-size="7" letter-spacing="0em" style="white-space:pre"><tspan x="7.9" y="153.3">Introducing an educational space for new </tspan><tspan x="2.7" y="164.3">street vendors, addressing the lack of formal </tspan><tspan x="28.5" y="175.3">education based on surveys.</tspan></text>
  <text xml:space="preserve" fill="#000" font-family="TeX Gyre Schola" font-size="7" font-weight="bold" letter-spacing="0em" style="white-space:pre"><tspan x="137.4" y="243.3">Accessibility</tspan></text>
  <text xml:space="preserve" fill="#000" font-family="TeX Gyre Schola" font-size="7" letter-spacing="0em" style="white-space:pre"><tspan x="89.6" y="254.3">Prioritizing accessibility for all, particularly </tspan><tspan x="88.9" y="265.3">focusing on flat and non-slip surfaces for the </tspan><tspan x="139.1" y="276.3">ground floor.</tspan></text>
  <rect width="28" height="28" x="61" y="2" fill="#000" rx="14"/>
  <path fill="#fff" d="M75 16q.8 0 1.2-.5.5-.6.5-1.2 0-.8-.5-1.3t-1.2-.5-1.2.5-.5 1.3.5 1.2 1.2.5m0 6.4a24 24 0 0 0 4-4.4 7 7 0 0 0 1.3-3.6q0-2.4-1.6-3.9A5 5 0 0 0 75 9a5 5 0 0 0-3.7 1.5q-1.5 1.5-1.5 4 0 1.5 1.2 3.5a24 24 0 0 0 4 4.4m0 2.4a29 29 0 0 1-5.3-5.6 9 9 0 0 1-1.7-4.8q0-3.3 2.1-5.2a7 7 0 0 1 4.9-2 7 7 0 0 1 4.9 2q2.1 2 2.1 5.2 0 2.2-1.7 4.8a29 29 0 0 1-5.3 5.6"/>
  <rect width="28" height="28" x="233" y="2" fill="#000" rx="14"/>
  <path fill="#fff" d="M240 24.8v-14h3.5q0-1.5 1-2.5t2.5-1 2.5 1 1 2.4h3.5v14zm1.8-1.8h10.4V12.5h-1.7v2.6h-1.7v-2.6h-3.6v2.6h-1.7v-2.6h-1.7zm3.4-12.2h3.6q0-.8-.6-1.3-.4-.5-1.2-.5t-1.2.5q-.6.6-.6 1.3"/>
  <rect width="28" height="28" x="405" y="2" fill="#000" rx="14"/>
  <path fill="#fff" d="m424.1 23.4-5.9-6-1.8.4a5 5 0 0 1-3.7-1.6 5 5 0 0 1-1.6-3.7 5 5 0 0 1 .9-2.8l3.1 3.2 1.6-1.6-3.2-3.2 1.4-.6 1.5-.2a5 5 0 0 1 3.7 1.5 5 5 0 0 1 1.4 4.7l-.2.8 6 6zm0-2.5.6-.6-5.6-5.6q.5-.4.6-1l.2-1.2q0-1.3-.9-2.3T417 9l2.2 2.3-4 4-2.3-2.2q.2 1.2 1.2 2t2.3.9l1.1-.2 1-.5z"/>
  <rect width="28" height="28" x="61" y="102" fill="#000" rx="14"/>
  <path fill="#fff" d="m75 123-6.1-3.3v-5.3l-3.5-1.9 9.6-5.2 9.6 5.2v7H83v-6l-1.8 1v5.2zm0-7.3 6-3.2-6-3.2-6 3.2zm0 5.3 4.4-2.4v-3.3l-4.4 2.5-4.4-2.5v3.3z"/>
  <rect width="28" height="28" x="233" y="102" fill="#000" rx="14"/>
  <path fill="#fff" d="M247 109.9q-.7 0-1.2-.5t-.6-1.3.6-1.2 1.2-.5 1.2.5.6 1.2q0 .8-.6 1.3-.4.5-1.2.5m-2.6 14v-11.4a35 35 0 0 1-5.3-.9l.5-1.7a24 24 0 0 0 7.4.8 35 35 0 0 0 7.4-.8l.5 1.7a26 26 0 0 1-5.3.9v11.4H248v-5.3h-2v5.3z"/>
  <rect width="28" height="28" x="405" y="102" fill="#000" rx="14"/>
  <path fill="#fff" d="M415.3 123v-7.2q-1-.3-1.7-1.1t-.7-2v-5.5h1.6v5.6h.8v-5.5h1.7v5.5h.8v-5.5h1.6v5.5q0 1-.7 1.9t-1.7 1v7.3zm8.2 0v-6.3H421v-5.5q0-1.6 1.2-2.8a4 4 0 0 1 3-1.2V123z"/>
  <rect width="28" height="28" x="147" y="202" fill="#000" rx="14"/>
  <path fill="#fff" d="M169 214.3v8.7h-15.8v-8.7l-.8-1.2q-.3-.7 0-1.6l1.3-4.2h14.7l1.3 4.2q.3.9 0 1.6t-.8 1.2m-6-1q.6 0 .9-.3.3-.4.2-1l-.5-3H162v3.2q0 .5.3.8t.8.4m-4 0q.6 0 .8-.3.4-.3.4-.8V209h-1.7l-.5 3q0 .6.2 1 .3.3.8.4m-3.9 0q.4 0 .7-.2l.4-.7.5-3.4H155l-1 3 .2.9q.3.5 1 .5m11.8 0q.7.1 1-.4t.1-1l-1-2.9h-1.6l.5 3.4q0 .4.4.7zm-12 8h12.3V215h-.2q-.7 0-1-.2l-1-.6q-.3.5-.9.6-.5.3-1 .2a3 3 0 0 1-2-.8 3 3 0 0 1-2 .8 3 3 0 0 1-2-.8q-.4.5-1 .6-.3.2-1 .2h-.2z"/>
  <rect width="28" height="28" x="319" y="202" fill="#000" rx="14"/>
  <path fill="#fff" d="M339.1 223q-.7 0-1.5-.5-.7-.4-1-1.2h-4.5q-1.5 0-2.4-1-1-1.2-1-2.6t1-2.4 2.4-1h1.8q.8 0 1.2-.6.5-.4.5-1.2t-.5-1.2q-.5-.6-1.2-.6h-4.6q-.2.9-1 1.3-.6.5-1.4.5-1.2 0-1.9-.8-.7-.7-.7-1.8t.7-1.9 1.9-.7q.8 0 1.5.4.6.6 1 1.3h4.5q1.5 0 2.4 1 1 1 1 2.5t-1 2.5-2.4 1H332q-.7 0-1.2.5t-.5 1.3q0 .6.5 1.2t1.2.5h4.6q.2-.8 1-1.3.6-.4 1.4-.4 1.2 0 1.9.7.8.7.8 1.9 0 1-.8 1.8-.7.8-1.9.8m-12-12.2.6-.3.3-.6q0-.5-.3-.6l-.6-.3q-.5 0-.6.3-.3.2-.3.6t.3.6q.2.3.6.3"/>
</svg>
