<svg xmlns="http://www.w3.org/2000/svg" width="495" height="133" fill="none">
  <text xml:space="preserve" fill="#000" font-family="TeX Gyre Schola" font-size="7" letter-spacing="0em" style="white-space:pre"><tspan x="266.8" y="125.5">Park &amp; Ride Optimization</tspan></text>
  <text xml:space="preserve" fill="#000" font-family="TeX Gyre Schola" font-size="7" letter-spacing="0em" style="white-space:pre"><tspan x="40.1" y="125.5">Facilities</tspan></text>
  <text xml:space="preserve" fill="#000" font-family="TeX Gyre Schola" font-size="7" letter-spacing="0em" style="white-space:pre"><tspan x="160.7" y="119.5">Green Space </tspan><tspan x="139.3" y="130.5">&amp; Groundwater Allocation</tspan></text>
  <text xml:space="preserve" fill="#000" font-family="TeX Gyre Schola" font-size="7" letter-spacing="0em" style="white-space:pre"><tspan x="393.3" y="125.5">Efficient Circulation Flow</tspan></text>
  <text xml:space="preserve" fill="#000" font-family="TeX Gyre Schola" font-size="7" letter-spacing="0em" style="white-space:pre"><tspan x="36.1" y="99.4">Criminality</tspan></text>
  <text xml:space="preserve" fill="#000" font-family="TeX Gyre Schola" font-size="7" letter-spacing="0em" style="white-space:pre"><tspan x="400.5" y="85.5">Energy and Resource </tspan><tspan x="412.1" y="96.5">Sustainability</tspan></text>
  <text xml:space="preserve" fill="#000" font-family="TeX Gyre Schola" font-size="7" letter-spacing="0em" style="white-space:pre"><tspan x="17.3" y="73.5">Intermodal Integration</tspan></text>
  <text xml:space="preserve" fill="#000" font-family="TeX Gyre Schola" font-size="7" letter-spacing="0em" style="white-space:pre"><tspan x="274.3" y="67.5">Violations Reduction </tspan><tspan x="268.3" y="78.5">&amp; Green Implementation</tspan></text>
  <text xml:space="preserve" fill="#000" font-family="TeX Gyre Schola" font-size="7" letter-spacing="0em" style="white-space:pre"><tspan x="136.2" y="67.5">Development Opportunities </tspan><tspan x="143.5" y="78.5">&amp; Zoning Enhancement</tspan></text>
  <text xml:space="preserve" fill="#000" font-family="TeX Gyre Schola" font-size="7" letter-spacing="0em" style="white-space:pre"><tspan x="403" y="51.5">Green and Material </tspan><tspan x="413.7" y="62.5">Management</tspan></text>
  <text xml:space="preserve" fill="#000" font-family="TeX Gyre Schola" font-size="7" letter-spacing="0em" style="white-space:pre"><tspan x="17.8" y="48.2">Terminal Development</tspan></text>
  <text xml:space="preserve" fill="#000" font-family="TeX Gyre Schola" font-size="7" letter-spacing="0em" style="white-space:pre"><tspan x="276.1" y="17.5">Efficient Circulation </tspan><tspan x="287.7" y="28.5">Management</tspan></text>
  <text xml:space="preserve" fill="#000" font-family="TeX Gyre Schola" font-size="7" letter-spacing="0em" style="white-space:pre"><tspan x="146.5" y="17.5">Facility Optimization </tspan><tspan x="145.3" y="28.5">&amp; Traffic Management</tspan></text>
  <text xml:space="preserve" fill="#000" font-family="TeX Gyre Schola" font-size="7" letter-spacing="0em" style="white-space:pre"><tspan x="21.7" y="23.5">Urban/Region Nodes</tspan></text>
  <text xml:space="preserve" fill="#000" font-family="TeX Gyre Schola" font-size="7" letter-spacing="0em" style="white-space:pre"><tspan x="390.1" y="23.5">Sustainable Transportation</tspan></text>
  <text xml:space="preserve" fill="#000" font-family="TeX Gyre Schola" font-size="7" font-weight="bold" letter-spacing="0em" style="white-space:pre"><tspan x="416.5" y="8.3">Strategies</tspan></text>
  <text xml:space="preserve" fill="#000" font-family="TeX Gyre Schola" font-size="7" font-weight="bold" letter-spacing="0em" style="white-space:pre"><tspan x="291.8" y="8.3">Solutions</tspan></text>
  <text xml:space="preserve" fill="#000" font-family="TeX Gyre Schola" font-size="7" font-weight="bold" letter-spacing="0em" style="white-space:pre"><tspan x="162" y="8.3">Challenges</tspan></text>
  <text xml:space="preserve" fill="#000" font-family="TeX Gyre Schola" font-size="7" font-weight="bold" letter-spacing="0em" style="white-space:pre"><tspan x="43.8" y="8.3">Issues</tspan></text>
  <circle cx="383" cy="122.2" r="1" fill="#000"/>
  <circle cx="364" cy="122.2" r="1" fill="#000"/>
  <circle cx="255" cy="122.2" r="1" fill="#000"/>
  <circle cx="236" cy="122.2" r="1" fill="#000"/>
  <circle cx="128" cy="122.2" r="1" fill="#000"/>
  <circle cx="109" cy="122.2" r="1" fill="#000"/>
  <circle cx="109" cy="96.2" r="1" fill="#000"/>
  <circle cx="383" cy="88.2" r="1" fill="#000"/>
  <circle cx="364" cy="71.2" r="1" fill="#000"/>
  <circle cx="255" cy="71.2" r="1" fill="#000"/>
  <circle cx="236" cy="71.2" r="1" fill="#000"/>
  <circle cx="128" cy="71.2" r="1" fill="#000"/>
  <circle cx="109" cy="71.2" r="1" fill="#000"/>
  <circle cx="383" cy="53.2" r="1" fill="#000"/>
  <circle cx="109" cy="45.2" r="1" fill="#000"/>
  <circle cx="383" cy="19.2" r="1" fill="#000"/>
  <circle cx="364" cy="19.2" r="1" fill="#000"/>
  <circle cx="255" cy="19.2" r="1" fill="#000"/>
  <circle cx="236" cy="19.2" r="1" fill="#000"/>
  <circle cx="128" cy="19.2" r="1" fill="#000"/>
  <circle cx="109" cy="19.2" r="1" fill="#000"/>
  <path stroke="#000" stroke-dasharray="1 1" stroke-linejoin="round" stroke-width=".1" d="M109 19.2h19m0 0-19 26m19-26-19 52h19m0-52-19 77m19-77-19 103m0-77 19 26m-19-26 19 77h-19m19-51-19 51m127-103h19l-19 52 19 51zm0 0 19 52-19 51m128-103h19l-19 103h19m-19-103 19 34-19 18m0-52 19 103m-19-51 19 51m-19-51 19 17"/>
</svg>
