<svg xmlns="http://www.w3.org/2000/svg" width="482" height="210" fill="none">
  <ellipse cx="466.5" cy="186.6" fill="#000" rx="14.8" ry="14.9"/>
  <ellipse cx="14.8" cy="186.6" fill="#000" rx="14.8" ry="14.9"/>
  <ellipse cx="466.5" cy="133" fill="#000" rx="14.8" ry="14.9"/>
  <ellipse cx="14.8" cy="133" fill="#000" rx="14.8" ry="14.9"/>
  <ellipse cx="466.5" cy="81" fill="#000" rx="14.8" ry="14.9"/>
  <ellipse cx="14.8" cy="81" fill="#000" rx="14.8" ry="14.9"/>
  <ellipse cx="466.5" cy="28.9" fill="#000" rx="14.8" ry="14.9" transform="rotate(-2.4 466.5 28.9)"/>
  <ellipse cx="14.8" cy="28.2" fill="#000" rx="14.8" ry="14.9"/>
  <text xml:space="preserve" fill="#000" font-family="TeX Gyre Schola" font-size="6" letter-spacing="0em" style="white-space:pre"><tspan x="350.7" y="171.9">The project actively involves local </tspan><tspan x="357.8" y="180.9">communities in the design and </tspan><tspan x="330.3" y="189.9">construction processes of different areas, </tspan><tspan x="338.1" y="198.9">ensuring a collaborative and inclusive </tspan><tspan x="415.9" y="207.9">approach.</tspan></text>
  <text xml:space="preserve" fill="#000" font-family="TeX Gyre Schola" font-size="6" letter-spacing="0em" style="white-space:pre"><tspan x="38.8" y="171.9">The design emphasizes inter-space </tspan><tspan x="38.8" y="180.9">integration, creating strong </tspan><tspan x="38.8" y="189.9">connections between the </tspan><tspan x="38.8" y="198.9">community, public space, and </tspan><tspan x="38.8" y="207.9">nature.</tspan></text>
  <text xml:space="preserve" fill="#000" font-family="TeX Gyre Schola" font-size="6" letter-spacing="0em" style="white-space:pre"><tspan x="38.8" y="121.9">The project is accessible to the </tspan><tspan x="38.8" y="130.9">community and serves as a </tspan><tspan x="38.8" y="139.9">supportive space for local small </tspan><tspan x="38.8" y="148.9">and medium enterprises</tspan></text>
  <text xml:space="preserve" fill="#000" font-family="TeX Gyre Schola" font-size="6" letter-spacing="0em" style="white-space:pre"><tspan x="367.1" y="117.9">Projects offer the flexibility </tspan><tspan x="375.4" y="126.9">to accommodate various </tspan><tspan x="369" y="135.9">types of activities in parks </tspan><tspan x="389.4" y="144.9">and adaptive reuse </tspan><tspan x="414.5" y="153.9">buildings.</tspan></text>
  <text xml:space="preserve" fill="#000" font-family="TeX Gyre Schola" font-size="6" letter-spacing="0em" style="white-space:pre"><tspan x="351.3" y="65.9">To address flooding concerns, the </tspan><tspan x="344.4" y="74.9">project incorporates pilotis building </tspan><tspan x="362.4" y="83.9">models and catchment areas, </tspan><tspan x="349.1" y="92.9">allowing for activities during non-</tspan><tspan x="406.3" y="101.9">flood periods.</tspan></text>
  <text xml:space="preserve" fill="#000" font-family="TeX Gyre Schola" font-size="6" letter-spacing="0em" style="white-space:pre"><tspan x="38.8" y="65.9">In response to user needs, the </tspan><tspan x="38.8" y="74.9">project provides study rooms, </tspan><tspan x="38.8" y="83.9">promoting empowerment for both </tspan><tspan x="38.8" y="92.9">individuals and the surrounding </tspan><tspan x="38.8" y="101.9">environment.</tspan></text>
  <text xml:space="preserve" fill="#000" font-family="TeX Gyre Schola" font-size="6" letter-spacing="0em" style="white-space:pre"><tspan x="377" y="12.9">Projects are designed to </tspan><tspan x="356.1" y="21.9">accommodate various functions </tspan><tspan x="368.5" y="30.9">with adaptable spaces that </tspan><tspan x="356.2" y="39.9">respond to changing needs over </tspan><tspan x="428.8" y="48.9">time.</tspan></text>
  <text xml:space="preserve" fill="#000" font-family="TeX Gyre Schola" font-size="6" letter-spacing="0em" style="white-space:pre"><tspan x="38.8" y="16.9">The project aims to create a </tspan><tspan x="38.8" y="25.9">collaborative space for the </tspan><tspan x="38.8" y="34.9">surrounding community, fostering </tspan><tspan x="38.8" y="43.9">engagement and interaction.</tspan></text>
  <path fill="#fff" d="M23.4 132v7.8q0 .8-.5 1.3t-1.2.5H7.9q-.8 0-1.2-.5-.5-.6-.5-1.3V132q-.6-.4-1-1.2V129l1-3.3q.3-.6.8-1 .4-.3 1-.3h13.5a2 2 0 0 1 1.8 1.3l1 3.3q.3.8 0 1.7t-.9 1.3m-6.4-.7q.8 0 1.2-.5t.4-1.1l-.6-4h-2.5v4q0 .6.4 1.1t1 .5m-4.5 0q.8 0 1.2-.5t.4-1.1v-4h-2.4l-.6 4q0 .6.3 1 .5.6 1.1.6m-4.3 0q.5 0 1-.4.3-.4.4-1l.6-4.1H7.8l-.2.2-1 3.3q0 .8.3 1.3.4.7 1.3.7m13.3 0q.8 0 1.2-.6t.3-1.4l-1-3.3-.2-.2h-2.4l.6 4.1q0 .6.5 1t1 .4M5 88.3v-3.7q0-.7.5-1.2t1.1-.5h3.1q.5 0 .8.2.4.1.7.6a5 5 0 0 0 4.2 2.2 5 5 0 0 0 4.3-2.2q.3-.5.7-.6l.8-.2h3q.8 0 1.2.5.5.5.5 1.2v3.7h-6.4v-2.4a7 7 0 0 1-4 1.4 7 7 0 0 1-4.1-1.4v2.4zm10.4-3.9a4 4 0 0 1-3-1.6q-.3-.5-.9-.8l-1.2-.5q.7-.7 2.2-1.2t3-.4 2.8.4q1.5.5 2.3 1.2-.6 0-1.2.5l-1 .8q-.4.8-1.2 1.2-.9.4-1.8.4m-7.7-3q-1.1 0-1.9-.8T5 78.7t.8-2q.8-.7 2-.7 1 0 1.8.8.8.7.8 2 0 1-.8 1.8-.7.8-1.9.8m15.4 0q-1 0-1.9-.8-.7-.8-.7-1.9 0-1.2.7-2 .9-.7 2-.7 1 0 1.9.8.8.7.8 2 0 1-.8 1.8t-2 .8m-7.7-3q-1 0-1.9-.8t-.8-1.9.8-2q.8-.7 2-.7 1 0 1.9.8.7.7.7 2 0 1-.7 1.8-.9.8-2 .8m-.6-52.7-3-3.1 3-3 3 3zM4.4 36.5v-3.7q0-.7.4-1.2T6 31h3l1 .2.6.6a5 5 0 0 0 4.2 2.2 5 5 0 0 0 4.3-2.2q.2-.4.6-.6l.8-.2h3.1q.7 0 1.2.5t.5 1.2v3.7h-6.4V34a7 7 0 0 1-4.1 1.4 7 7 0 0 1-4-1.4v2.4zm2.7-7q-1.2 0-2-.7-.7-.8-.7-1.9t.8-2q.7-.6 1.9-.7 1 0 2 .8.7.7.7 1.9T9 28.8q-.8.8-2 .8m15.4 0q-1.1 0-1.9-.7-.8-.8-.8-1.9t.8-2q.8-.6 2-.7 1 0 1.8.8.9.7.8 1.9t-.8 1.9q-.7.8-1.9.8M459 88v-1.1q.6 0 1-.4.3-.4 1.3-.4t1.5.4 1.1.4 1.2-.4 1.4-.4 1.4.4 1.2.4q.8 0 1.1-.4.5-.4 1.5-.4t1.3.4 1 .4v1q-.9 0-1.2-.3-.5-.4-1.1-.4-.8 0-1.2.4t-1.4.4-1.5-.4-1.1-.4-1.2.4-1.4.4-1.4-.4q-.5-.3-1.2-.4-.6 0-1 .4t-1.3.4m0-3v-1l1-.5q.4-.3 1.3-.3h.5l.5.2-1-3.4-1 1.4-1-.7L465 74l8.3 3.1-.4 1-1.7-.6 1.6 6 .6.3.7.2v1q-.9 0-1.2-.4-.5-.3-1.1-.3-.8 0-1.2.4t-1.4.4-1.5-.4-1.1-.4-1.2.4-1.4.4-1.4-.4-1.2-.4-1 .3q-.5.4-1.3.5m10.2-1-1.1-4.3-3 .8.8 2.7h.6q1 0 1.5.4t1.2.3m-10.7 56-.7-.7 2.6-2.6-.8-2.3v-.7q0-.4.3-.7l2.4-2.4.4-.3h.5a1 1 0 0 1 1 .3l1.4 1.4 1.2.8 1.5.3v1q-.9 0-1.8-.3t-1.5-1l-.7-.6-2 2 1.6 1.7v4.2h-1v-3.7l-1.5-1.3v2zm10.3.1v-4.8l1.6-1.6-.6-3.1-1 1-1.1.7a3 3 0 0 1-1.5-.7q1 0 1.7-.6l1-1.2.8-1.2q.3-.5.7-.6h1l3.6 1.6v3.1h-1v-2.4l-1.9-.7 2.1 10.5h-1.1l-1.4-5.7-1.9 1.7v4zm-3-9.6q-.6 0-1-.4t-.4-1 .4-1 1-.3q.4 0 1 .4.3.3.3 1 0 .5-.4.9-.4.3-1 .4m4-3q-.6 0-1-.4-.3-.4-.3-1-.1-.6.4-1 .3-.3 1-.3.5 0 .9.4.4.3.4 1 0 .4-.4.9t-1 .4M455 191.8v-1.2q0-1 1-1.6 1.1-.6 2.7-.6h1.2a4 4 0 0 0-.5 2v1.4zm6 0v-1.4q0-.6.4-1.2l1.1-1 1.8-.7a10 10 0 0 1 6.1.7q.8.4 1.2 1l.3 1.2v1.4zm12.6 0v-1.4a4 4 0 0 0-.5-2h1.1q1.7 0 2.7.6t1 1.6v1.2zm-14.9-4.5q-.6 0-1.1-.5t-.5-1.2.5-1.1q.5-.6 1.1-.5.8 0 1.2.5.5.5.5 1.1 0 .8-.5 1.2-.5.5-1.2.5m15.5 0q-.6 0-1.1-.5t-.5-1.2.5-1.1 1.1-.5 1.2.5.5 1.1-.5 1.2q-.4.5-1.2.5m-7.7-.8q-1 0-1.8-.8-.8-.7-.8-1.8 0-1 .8-1.8.7-.7 1.8-.7 1 0 1.8.7.7.8.7 1.8t-.7 1.8-1.8.8m-2.2-148.3-.4-3-1.6-1-2.8 1.2-2.2-3.8 2.4-1.8v-1.9l-2.4-1.8 2.2-3.8 2.8 1.2 1.6-1 .4-3h4.4l.4 3 1.5 1 2.9-1.2 2.2 3.8-2.5 1.9v1.8l2.4 1.8-2.2 3.8-2.8-1.2-1.5 1-.4 3zm2.1-6.4q1.3 0 2.1-.9t.8-2-.8-2q-.8-1-2-1-1.3 0-2.1 1-.9.8-.9 2t.9 2 2 .9M14.8 186.6q0-2.1 1.5-3.5 1.5-1.5 3.5-1.5t3.5 1.5 1.5 3.5zm-5 5q-2 0-3.5-1.5-1.4-1.5-1.4-3.5h10q0 2-1.6 3.5-1.4 1.5-3.5 1.4m5-5q-2 0-3.5-1.5-1.5-1.4-1.5-3.5 0-2 1.5-3.5 1.4-1.5 3.5-1.5zm0 10v-10q2.1 0 3.5 1.4 1.5 1.5 1.5 3.5 0 2.1-1.5 3.6t-3.5 1.4"/>
  <path stroke="#000" stroke-dasharray="1.18 1.18" stroke-linejoin="round" stroke-width=".1" d="m192.7 192.7 9.9-35.6m-10 35.6 43.6 1.8m-43.5-1.8L176 123.4m26.5 33.7L176 123.4m26.5 33.7 37.7-31.4M202.6 157l33.6 37.4M202.6 157 238 50.6m-62 72.8 19.8-40.2m-19.7 40.2 64.2 2.3m-64.2-2.3 62-72.8m-42.3 32.6-10.7-49.3m10.7 49.3L238 50.6m-42.2 32.6 106.4-17.8M185.1 33.9 278 17.3m-93 16.6 53 16.7m-53-16.7 55.3 91.8M278 17.3l24.2 48.1M278 17.3l-40 33.3m64.2 14.8-13.9 47.2m14-47.2L238 50.6m64.2 14.8-62 60.3m48.1-13 28.7 29.6m-28.7-29.7-48 13m48-13-50.3-62m50.3 62-5.8 54m5.8-54-52 81.9m80.7-52.2-34.5 24.3m34.5-24.3-76.7-16.6m42.2 40.9-46.3 27.9m46.3-28-42.2-40.8m-4 68.8 4-68.8m0 0L238 50.6"/>
  <circle cx="315.6" cy="142.2" r="13.5" fill="#fff" stroke="#000" stroke-width=".4"/>
  <circle cx="288.3" cy="108.9" r="13.5" fill="#fff" stroke="#000" stroke-width=".4"/>
  <circle cx="276.6" cy="18.1" r="17.1" fill="#fff" stroke="#000" stroke-width=".4"/>
  <circle cx="299.1" cy="64" r="13.5" fill="#fff" stroke="#000" stroke-width=".4"/>
  <circle cx="175" cy="123.3" r="13.5" fill="#fff" stroke="#000" stroke-width=".4"/>
  <circle cx="201.6" cy="156.1" r="14.8" fill="#fff" stroke="#000" stroke-width=".4"/>
  <circle cx="192.1" cy="191.6" r="14.4" fill="#fff" stroke="#000" stroke-width=".4"/>
  <circle cx="236.2" cy="194.3" r="9.9" fill="#fff" stroke="#000" stroke-width=".4"/>
  <circle cx="194.4" cy="82.9" r="13.5" fill="#fff" stroke="#000" stroke-width=".4"/>
  <ellipse cx="182.5" cy="34" fill="#fff" stroke="#000" stroke-width=".4" rx="18.5" ry="19"/>
  <ellipse cx="241.4" cy="124.3" fill="#fff" stroke="#000" stroke-width=".4" rx="27.9" ry="28"/>
  <ellipse cx="282.2" cy="166.6" fill="#fff" stroke="#000" stroke-width=".4" rx="20.8" ry="20.9"/>
  <ellipse cx="237.2" cy="48.8" fill="#fff" stroke="#000" stroke-width=".4" rx="20.8" ry="20.9"/>
  <text xml:space="preserve" fill="#000" font-family="TeX Gyre Schola" font-size="5" letter-spacing="0em" style="white-space:pre"><tspan x="278.5" y="107.4">Types of
</tspan><tspan x="279.5" y="114.4">activity</tspan></text>
  <text xml:space="preserve" fill="#000" font-family="TeX Gyre Schola" font-size="5" letter-spacing="0em" style="white-space:pre"><tspan x="184.9" y="190.1">Public </tspan><tspan x="185.8" y="197.1">space</tspan></text>
  <text xml:space="preserve" fill="#000" font-family="TeX Gyre Schola" font-size="4" letter-spacing="0em" style="white-space:pre"><tspan x="303.6" y="144.2">Participative</tspan></text>
  <text xml:space="preserve" fill="#000" font-family="TeX Gyre Schola" font-size="5" letter-spacing="0em" style="white-space:pre"><tspan x="228" y="196.8">Nature</tspan></text>
  <text xml:space="preserve" fill="#000" font-family="TeX Gyre Schola" font-size="5" letter-spacing="0em" style="white-space:pre"><tspan x="269.7" y="16.6">Multi-</tspan><tspan x="267.4" y="23.6">function</tspan></text>
  <text xml:space="preserve" fill="#000" font-family="TeX Gyre Schola" font-size="4" letter-spacing="0em" style="white-space:pre"><tspan x="182.5" y="84.9">Learnability</tspan></text>
  <text xml:space="preserve" fill="#000" font-family="TeX Gyre Schola" font-size="5" letter-spacing="0em" style="white-space:pre"><tspan x="228.6" y="122.7">Interactive
</tspan><tspan x="233.8" y="129.7">design</tspan></text>
  <text xml:space="preserve" fill="#000" font-family="TeX Gyre Schola" font-size="5" letter-spacing="0em" style="white-space:pre"><tspan x="269.8" y="165">Integrated </tspan><tspan x="267.4" y="172">environment</tspan></text>
  <text xml:space="preserve" fill="#000" font-family="TeX Gyre Schola" font-size="4" letter-spacing="0em" style="white-space:pre"><tspan x="293.9" y="62.5">Flood </tspan><tspan x="289.2" y="68.5">responsive</tspan></text>
  <text xml:space="preserve" fill="#000" font-family="TeX Gyre Schola" font-size="4" letter-spacing="0em" style="white-space:pre"><tspan x="190.2" y="158.2">Community</tspan></text>
  <text xml:space="preserve" fill="#000" font-family="TeX Gyre Schola" font-size="5" letter-spacing="0em" style="white-space:pre"><tspan x="167.1" y="36">Collaborative</tspan></text>
  <text xml:space="preserve" fill="#000" font-family="TeX Gyre Schola" font-size="4" letter-spacing="0em" style="white-space:pre"><tspan x="165.7" y="125.3">Affordance</tspan></text>
  <text xml:space="preserve" fill="#000" font-family="TeX Gyre Schola" font-size="5" letter-spacing="0em" style="white-space:pre"><tspan x="226.9" y="50.7">Adaptive</tspan></text>
</svg>
