<svg xmlns="http://www.w3.org/2000/svg" width="495" height="103" fill="none">
  <ellipse cx="34" cy="28.8" stroke="#000" stroke-width=".5" rx="25.6" ry="25.8"/>
  <ellipse cx="34" cy="74" stroke="#000" stroke-width=".5" rx="25.6" ry="25.8"/>
  <ellipse cx="80.1" cy="28.8" stroke="#000" stroke-width=".5" rx="25.6" ry="25.8"/>
  <ellipse cx="80.1" cy="74" stroke="#000" stroke-width=".5" rx="25.6" ry="25.8"/>
  <text xml:space="preserve" fill="#000" font-family="TeX Gyre Schola" font-size="7" letter-spacing="0em" style="white-space:pre"><tspan x="14.7" y="25.7">Co-Working
</tspan><tspan x="24.1" y="36.7">Space</tspan></text>
  <text xml:space="preserve" fill="#000" font-family="TeX Gyre Schola" font-size="7" letter-spacing="0em" style="white-space:pre"><tspan x="67.2" y="71.3">Food &amp; 
</tspan><tspan x="64.9" y="82.3">Beverage</tspan></text>
  <text xml:space="preserve" fill="#000" font-family="TeX Gyre Schola" font-size="7" letter-spacing="0em" style="white-space:pre"><tspan x="70.1" y="31.4">MICE</tspan></text>
  <text xml:space="preserve" fill="#000" font-family="TeX Gyre Schola" font-size="7" letter-spacing="0em" style="white-space:pre"><tspan x="24" y="76.8">Retail</tspan></text>
  <ellipse cx="418" cy="28.8" stroke="#000" stroke-width=".5" rx="25.6" ry="25.8"/>
  <ellipse cx="418" cy="74" stroke="#000" stroke-width=".5" rx="25.6" ry="25.8"/>
  <ellipse cx="464.1" cy="28.8" stroke="#000" stroke-width=".5" rx="25.6" ry="25.8"/>
  <ellipse cx="464.1" cy="74" stroke="#000" stroke-width=".5" rx="25.6" ry="25.8"/>
  <text xml:space="preserve" fill="#000" font-family="TeX Gyre Schola" font-size="7" letter-spacing="0em" style="white-space:pre"><tspan x="405.4" y="33">Upkeep</tspan></text>
  <text xml:space="preserve" fill="#000" font-family="TeX Gyre Schola" font-size="7" letter-spacing="0em" style="white-space:pre"><tspan x="453.1" y="31.4">Utility</tspan></text>
  <text xml:space="preserve" fill="#000" font-family="TeX Gyre Schola" font-size="7" letter-spacing="0em" style="white-space:pre"><tspan x="458.4" y="76.8">Tax</tspan></text>
  <text xml:space="preserve" fill="#000" font-family="TeX Gyre Schola" font-size="7" letter-spacing="0em" style="white-space:pre"><tspan x="399.8" y="71.3">Investment</tspan><tspan x="411.9" y="82.3">cost</tspan></text>
  <text xml:space="preserve" fill="#000" font-family="TeX Gyre Schola" font-size="7" letter-spacing="0em" style="white-space:pre"><tspan x="152.9" y="79.8">Income</tspan></text>
  <path fill="#000" d="M169.4 48.2v4.5h6.7v6.7h4.5v-6.7h6.7v-4.5h-6.7v-6.8H176v6.8m-6.8-7.7a6.7 6.7 0 0 0-13.3 1 6.7 6.7 0 0 0 9.2 6.2c.6-2.5 1.6-4.9 4.1-7.2m-4.4 10h-13.4a4.5 4.5 0 0 0-4.5-4.6v-9c2.5 0 4.5-2 4.5-4.5h22.4a4.5 4.5 0 0 0 4.5 4.5v.2q2.3 0 4.4.7V28h-40.3v27h23.1q-.6-2.2-.7-4.5m98.2-.8-1.7-10.2a2 2 0 0 0-2-1.7h-15.5v-4h6q1-.1 1-1.1v-6.1q0-1-1-1h-16.2a1 1 0 0 0-1 1v6q.1 1 1 1.1h6.1v4h-5.3a2 2 0 0 0-2 1.8l-1.7 10.2V56q.1 1.8 2 2H261c1 0 2-.9 2-2v-6.4m-14.7-8.4q.1-.9 1-1h1q1 .1 1 1v1q0 1-1 1h-1a1 1 0 0 1-1-1zm-2 4.1h1q1 .1 1 1v1q0 1-1 1h-1a1 1 0 0 1-1-1v-1q0-.9 1-1m-2-5q.9 0 1 1v1q-.1.9-1 1h-1a1 1 0 0 1-1-1v-1q0-1 1-1zm-8.6-9.7v-2h12.1v2zm2.5 12.7h-1a1 1 0 0 1-1-1v-1q0-1 1-1h1q1 0 1 1v1q0 .9-1 1m1 4v-1q.1-.9 1-1h1q1 .1 1 1v1q0 1-1 1h-1a1 1 0 0 1-1-1m13.7 7.2q0 .5-.5.5h-11.2l-.5-.5v-1q.1-.5.5-.6h11.2q.5 0 .5.6zm1.5-7.2q-.1 1-1 1h-1a1 1 0 0 1-1-1v-1q0-.9 1-1h1q.9.1 1 1zm3-5q0 .9-1 1h-1a1 1 0 0 1-1-1v-1q.1-1 1-1h1q1 0 1 1z"/>
  <text xml:space="preserve" fill="#000" font-family="TeX Gyre Schola" font-size="7" letter-spacing="0em" style="white-space:pre"><tspan x="230.2" y="79.8">Cashflow</tspan></text>
  <path fill="#000" d="m344.7 25.4 4.5 4.3h-10.6v-6.2h-2.8v9h13.4l-4.5 4.3 2 1.9 8-7.6-8-7.6zm-21.3 15.8q-1.7 0-3.1.9t-2.1 2.4a5 5 0 0 0 1.2 5.8q1.2 1.2 2.9 1.5a6 6 0 0 0 3.3-.3q1.6-.5 2.5-2a5 5 0 0 0-.7-6.7q-1.6-1.5-4-1.6m-17-5.4v21.5h34V35.8m-3.8 14.3q-1.6 0-2.6 1-1.2 1-1.2 2.6H314q0-1.6-1.2-2.5-1-1-2.6-1V43q1.6 0 2.6-1 1.2-1.1 1.2-2.6h18.8q0 1.6 1.2 2.5 1 1 2.6 1z"/>
  <text xml:space="preserve" fill="#000" font-family="TeX Gyre Schola" font-size="7" letter-spacing="0em" style="white-space:pre"><tspan x="303.2" y="79.8">Expenditure</tspan></text>
  <path fill="#000" d="m382.2 50-8.4 10.5v-21zM290 50l-8.3 10.5v-21zm-75.8 0L206 60.5v-21zm-88.1 0-8.3 10.5v-21z"/>
</svg>
