<svg xmlns="http://www.w3.org/2000/svg" width="502" height="240" fill="none">
  <text xml:space="preserve" fill="#000" font-family="TeX Gyre Schola" font-size="5" letter-spacing="0em" style="white-space:pre"><tspan x="191.8" y="50">Warehouse </tspan><tspan x="192.5" y="57">utilization</tspan></text>
  <text xml:space="preserve" fill="#000" font-family="TeX Gyre Schola" font-size="7" font-weight="bold" letter-spacing="0em" style="white-space:pre"><tspan x="21.4" y="8.3">Vision &amp; Mission</tspan></text>
  <text xml:space="preserve" fill="#000" font-family="TeX Gyre Schola" font-size="7" font-weight="bold" letter-spacing="0em" style="white-space:pre"><tspan x="40.5" y="22.3">Vision</tspan></text>
  <text xml:space="preserve" fill="#000" font-family="TeX Gyre Schola" font-size="5" letter-spacing="0em" style="white-space:pre"><tspan x="449.5" y="213.4">Veil &amp; Rug factory</tspan></text>
  <text xml:space="preserve" fill="#000" font-family="TeX Gyre Schola" font-size="7" font-weight="bold" letter-spacing="0em" style="white-space:pre"><tspan x="394.7" y="8.3">Users</tspan></text>
  <text xml:space="preserve" fill="#000" font-family="TeX Gyre Schola" font-size="5" letter-spacing="0em" style="white-space:pre"><tspan x="311.4" y="139">UMKM</tspan></text>
  <text xml:space="preserve" fill="#000" font-family="TeX Gyre Schola" font-size="5" letter-spacing="0em" style="white-space:pre"><tspan x="449.5" y="193.4">Trad. cuisine</tspan></text>
  <text xml:space="preserve" fill="#000" font-family="TeX Gyre Schola" font-size="5" letter-spacing="0em" style="white-space:pre"><tspan x="247.3" y="183.5">Sustainable food </tspan><tspan x="258.4" y="190.5">system</tspan></text>
  <text xml:space="preserve" fill="#000" font-family="TeX Gyre Schola" font-size="5" letter-spacing="0em" style="white-space:pre"><tspan x="449.5" y="86.3">Studying</tspan></text>
  <text xml:space="preserve" fill="#000" font-family="TeX Gyre Schola" font-size="7" font-weight="bold" letter-spacing="0em" style="white-space:pre"><tspan x="251.4" y="8.3">Strategy</tspan></text>
  <text xml:space="preserve" fill="#000" font-family="TeX Gyre Schola" font-size="5" letter-spacing="0em" style="white-space:pre"><tspan x="313.1" y="228.4">Sport</tspan></text>
  <text xml:space="preserve" fill="#000" font-family="TeX Gyre Schola" font-size="5" letter-spacing="0em" style="white-space:pre"><tspan x="345.6" y="228.4">Shared Kitchen</tspan></text>
  <text xml:space="preserve" fill="#000" font-family="TeX Gyre Schola" font-size="5" letter-spacing="0em" style="white-space:pre"><tspan x="449.5" y="173.4">Selling</tspan></text>
  <text xml:space="preserve" fill="#000" font-family="TeX Gyre Schola" font-size="5" letter-spacing="0em" style="white-space:pre"><tspan x="241.1" y="94.3">Public space &amp; Nature </tspan><tspan x="253.8" y="101.3">Integration</tspan></text>
  <text xml:space="preserve" fill="#000" font-family="TeX Gyre Schola" font-size="7" font-weight="bold" letter-spacing="0em" style="white-space:pre"><tspan x="316.1" y="8.3">Programming</tspan></text>
  <text xml:space="preserve" fill="#000" font-family="TeX Gyre Schola" font-size="5" letter-spacing="0em" style="white-space:pre"><tspan x="354.1" y="50">Playroom</tspan></text>
  <text xml:space="preserve" fill="#000" font-family="TeX Gyre Schola" font-size="5" letter-spacing="0em" style="white-space:pre"><tspan x="449.5" y="46.1">Playing</tspan></text>
  <text xml:space="preserve" fill="#000" font-family="TeX Gyre Schola" font-size="5" letter-spacing="0em" style="white-space:pre"><tspan x="188" y="183.5">Organic waste </tspan><tspan x="192.5" y="190.5">awareness</tspan></text>
  <text xml:space="preserve" fill="#000" font-family="TeX Gyre Schola" font-size="7" font-weight="bold" letter-spacing="0em" style="white-space:pre"><tspan x="181.7" y="8.3">Opportunity</tspan></text>
  <text xml:space="preserve" fill="#000" font-family="TeX Gyre Schola" font-size="5" letter-spacing="0em" style="white-space:pre"><tspan x="351.8" y="139">Open space</tspan></text>
  <text xml:space="preserve" fill="#000" font-family="TeX Gyre Schola" font-size="7" letter-spacing="0em" style="white-space:pre"><tspan x="429" y="29.3">Mutual Value</tspan></text>
  <text xml:space="preserve" fill="#000" font-family="TeX Gyre Schola" font-size="5" letter-spacing="0em" style="white-space:pre"><tspan x="324" y="94.3">Multifunction</tspan></text>
  <text xml:space="preserve" fill="#000" font-family="TeX Gyre Schola" font-size="7" font-weight="bold" letter-spacing="0em" style="white-space:pre"><tspan x="37.9" y="103.3">Mission</tspan></text>
  <text xml:space="preserve" fill="#000" font-family="TeX Gyre Schola" font-size="5" letter-spacing="0em" style="white-space:pre"><tspan x="180.2" y="94.5">Less productive land: </tspan><tspan x="194" y="101.5">±2,000m<tspan style="font-size:65%;baseline-shift:super">2</tspan></tspan></text>
  <text xml:space="preserve" fill="#000" font-family="TeX Gyre Schola" font-size="5" letter-spacing="0em" style="white-space:pre"><tspan x="118.5" y="50">Lack of study room</tspan></text>
  <text xml:space="preserve" fill="#000" font-family="TeX Gyre Schola" font-size="5" letter-spacing="0em" style="white-space:pre"><tspan x="123.8" y="94.3">Lack of play &amp; </tspan><tspan x="128.7" y="101.3">sport area</tspan></text>
  <text xml:space="preserve" fill="#000" font-family="TeX Gyre Schola" font-size="5" letter-spacing="0em" style="white-space:pre"><tspan x="123.8" y="139">Lack of play &amp; </tspan><tspan x="128.7" y="146">sport area</tspan></text>
  <text xml:space="preserve" fill="#000" font-family="TeX Gyre Schola" font-size="5" letter-spacing="0em" style="white-space:pre"><tspan x="124" y="183.5">Lack of health </tspan><tspan x="131.3" y="190.5">services</tspan></text>
  <text xml:space="preserve" fill="#000" font-family="TeX Gyre Schola" font-size="5" letter-spacing="0em" style="white-space:pre"><tspan x="121.5" y="228.4">Lack of business </tspan><tspan x="135.4" y="235.4">area</tspan></text>
  <text xml:space="preserve" fill="#000" font-family="TeX Gyre Schola" font-size="7" font-weight="bold" letter-spacing="0em" style="white-space:pre"><tspan x="128.8" y="8.3">Issues</tspan></text>
  <text xml:space="preserve" fill="#000" font-family="TeX Gyre Schola" font-size="5" letter-spacing="0em" style="white-space:pre"><tspan x="253.8" y="139">Interactive </tspan><tspan x="257" y="146">strategy</tspan></text>
  <text xml:space="preserve" fill="#000" font-family="TeX Gyre Schola" font-size="7" font-weight="bold" letter-spacing="0em" style="white-space:pre"><tspan x="426.8" y="8.3">Improvements</tspan></text>
  <text xml:space="preserve" fill="#000" font-family="TeX Gyre Schola" font-size="5" letter-spacing="0em" style="white-space:pre"><tspan x="189.6" y="139">High mutual </tspan><tspan x="197.1" y="146">values</tspan></text>
  <text xml:space="preserve" fill="#000" font-family="TeX Gyre Schola" font-size="5" letter-spacing="0em" style="white-space:pre"><tspan x="449.5" y="233.9">Handicraft</tspan></text>
  <text xml:space="preserve" fill="#000" font-family="TeX Gyre Schola" font-size="5" letter-spacing="0em" style="white-space:pre"><tspan x="449.5" y="66.4">Gathering</tspan></text>
  <text xml:space="preserve" fill="#000" font-family="TeX Gyre Schola" font-size="5" letter-spacing="0em" style="white-space:pre"><tspan x="449.5" y="106.7">Gardening</tspan></text>
  <text xml:space="preserve" fill="#000" font-family="TeX Gyre Schola" font-size="5" letter-spacing="0em" style="white-space:pre"><tspan x="308.3" y="50">Education</tspan></text>
  <text xml:space="preserve" fill="#000" font-family="TeX Gyre Schola" font-size="7" letter-spacing="0em" style="white-space:pre"><tspan x="429" y="136.3">Economy Value</tspan></text>
  <text xml:space="preserve" fill="#000" font-family="TeX Gyre Schola" font-size="7" letter-spacing="0em" style="white-space:pre"><tspan x="9" y="201">Developing adaptive reuse </tspan><tspan x="7.6" y="210">buildings with Eco-friendly </tspan><tspan x="6.2" y="219">designs for productivity and </tspan><tspan x="31.6" y="228">user welfare</tspan></text>
  <text xml:space="preserve" fill="#000" font-family="TeX Gyre Schola" font-size="7" letter-spacing="0em" style="white-space:pre"><tspan x="4.4" y="57.3">Designing eco-friendly spaces </tspan><tspan x="8.5" y="66.3">to enhance local well-being</tspan></text>
  <text xml:space="preserve" fill="#000" font-family="TeX Gyre Schola" font-size="7" letter-spacing="0em" style="white-space:pre"><tspan x="6.2" y="138.1">Creating a sustainable park </tspan><tspan x="11.7" y="147.1">supporting robust public </tspan><tspan x="36.7" y="156.1">activities</tspan></text>
  <text xml:space="preserve" fill="#000" font-family="TeX Gyre Schola" font-size="5" letter-spacing="0em" style="white-space:pre"><tspan x="449.5" y="153.4">Cooking</tspan></text>
  <text xml:space="preserve" fill="#000" font-family="TeX Gyre Schola" font-size="5" letter-spacing="0em" style="white-space:pre"><tspan x="395.2" y="139">Common</tspan></text>
  <text xml:space="preserve" fill="#000" font-family="TeX Gyre Schola" font-size="5" letter-spacing="0em" style="white-space:pre"><tspan x="183.8" y="228.4">Citizen gardening </tspan><tspan x="191" y="235.4">enthusiasm</tspan></text>
  <text xml:space="preserve" fill="#000" font-family="TeX Gyre Schola" font-size="5" letter-spacing="0em" style="white-space:pre"><tspan x="395.8" y="72.2">Children</tspan></text>
  <text xml:space="preserve" fill="#000" font-family="TeX Gyre Schola" font-size="5" letter-spacing="0em" style="white-space:pre"><tspan x="327.1" y="183.5">Agriculture</tspan></text>
  <text xml:space="preserve" fill="#000" font-family="TeX Gyre Schola" font-size="5" letter-spacing="0em" style="white-space:pre"><tspan x="399" y="205.5">Adult</tspan></text>
  <text xml:space="preserve" fill="#000" font-family="TeX Gyre Schola" font-size="5" letter-spacing="0em" style="white-space:pre"><tspan x="244.9" y="50">Adaptive approach</tspan></text>
  <path stroke="#939393" stroke-linecap="round" stroke-width=".1" d="M107 239.9V.1m65.9 239.8V.1m63 239.8V.1m62 239.8V.1m87 239.8V.1m40 239.8V.1"/>
  <circle cx="405.5" cy="188.9" r="9.5" fill="#000"/>
  <path fill="#000" d="M214 33c0 5.5-4.3 10-9.5 10a10 10 0 0 1-9.5-10c0-5.5 4.3-10 9.5-10s9.5 4.5 9.5 10"/>
  <ellipse cx="266.5" cy="167.3" fill="#000" rx="9.5" ry="10"/>
  <ellipse cx="266.5" cy="122.2" fill="#000" rx="9.5" ry="10"/>
  <circle cx="266.5" cy="77.6" r="9.5" fill="#000"/>
  <ellipse cx="266.5" cy="33" fill="#000" rx="9.5" ry="10"/>
  <path fill="#000" d="M149 211.3c0 5.3-4.2 9.7-9.5 9.7a9.6 9.6 0 0 1-9.5-9.7c0-5.3 4.3-9.6 9.5-9.6s9.6 4.3 9.6 9.6m180.5-89.5c0 5.4-4.3 9.7-9.5 9.7a9.6 9.6 0 0 1-9.6-9.7c0-5.3 4.3-9.6 9.6-9.6s9.5 4.3 9.5 9.6M150 167.3c0 5.5-4.3 10-9.5 10a10 10 0 0 1-9.5-10c0-5.6 4.3-10 9.5-10s9.5 4.4 9.5 10m0-45.1c0 5.5-4.3 10-9.5 10a10 10 0 0 1-9.5-10c0-5.6 4.3-10 9.5-10s9.5 4.4 9.5 10m0-44.6a9.5 9.5 0 1 1-19 0 9.5 9.5 0 0 1 19 0m0-44.6c0 5.5-4.3 10-9.5 10a10 10 0 0 1-9.5-10c0-5.5 4.3-10 9.5-10s9.5 4.5 9.5 10m64 178.3c0 5.3-4.2 9.7-9.5 9.7a9.6 9.6 0 0 1-9.5-9.7c0-5.3 4.3-9.6 9.5-9.6s9.6 4.3 9.6 9.6M350 167c0 5.2-4.2 9.6-9.5 9.6a9.6 9.6 0 0 1-9.5-9.7c0-5.3 4.3-9.6 9.5-9.6s9.6 4.3 9.6 9.6m-136.1.4c0 5.5-4.3 10-9.5 10a10 10 0 0 1-9.5-10c0-5.6 4.3-10 9.5-10s9.5 4.4 9.5 10m0-45.1c0 5.5-4.3 10-9.5 10a10 10 0 0 1-9.5-10c0-5.6 4.3-10 9.5-10s9.5 4.4 9.5 10m0-44.6a9.5 9.5 0 1 1-19 0 9.5 9.5 0 0 1 19 0m160.5 133.6a9.5 9.5 0 1 1-19 0 9.5 9.5 0 0 1 19 0M350 78c0 5.5-4.3 10-9.5 10a10 10 0 0 1-9.5-10c0-5.5 4.3-10 9.5-10s9.5 4.5 9.5 10m24.5 43.7a9.5 9.5 0 1 1-19 0 9.5 9.5 0 0 1 19 0M329.6 33c0 5.5-4.3 10-9.5 10a10 10 0 0 1-9.5-10c0-5.5 4.2-10 9.5-10s9.5 4.5 9.5 10m-.6 178.5a9.5 9.5 0 1 1-19 0 9.5 9.5 0 0 1 19 0M374.5 33c0 5.5-4.2 10-9.5 10a10 10 0 0 1-9.5-10c0-5.5 4.3-10 9.5-10s9.5 4.5 9.5 10"/>
  <circle cx="405.5" cy="121.7" r="9.5" fill="#000"/>
  <path fill="#000" d="M444 44a7.5 7.5 0 1 1-15 0 7.5 7.5 0 0 1 15 0m0 20.4a7.5 7.5 0 1 1-15 0 7.5 7.5 0 0 1 15 0m0 19.9a7.5 7.5 0 1 1-15 0 7.5 7.5 0 0 1 15 0m0 20.4a7.5 7.5 0 1 1-15 0 7.5 7.5 0 0 1 15 0m0 127.2a7.5 7.5 0 1 1-15 0 7.5 7.5 0 0 1 15 0m0-20.5a7.5 7.5 0 1 1-15 0 7.5 7.5 0 0 1 15 0m0-20a7.5 7.5 0 1 1-15 0 7.5 7.5 0 0 1 15 0m0-40a7.5 7.5 0 1 1-15 0 7.5 7.5 0 0 1 15 0m0 20a7.5 7.5 0 1 1-15 0 7.5 7.5 0 0 1 15 0M415 55.2c0 5.5-4.3 10-9.5 10a10 10 0 0 1-9.5-10c0-5.6 4.3-10 9.5-10s9.5 4.4 9.5 10"/>
  <circle cx="51.5" cy="117.4" r="9.5" fill="#000"/>
  <circle cx="51.5" cy="36.5" r="9.5" fill="#000"/>
  <circle cx="51.5" cy="179" r="9.5" fill="#000"/>
  <path fill="#fff" d="M50.4 174.2a4 4 0 0 0-3.2 1 4 4 0 0 0-.9 3.4 1 1 0 0 1 1.2-.3 1 1 0 0 1 .8.9 1 1 0 0 1 1.3.6l.1.5q.5 0 .8.3l.4.8a1 1 0 0 1 1 .8 1 1 0 0 1-.2 1.3l-.2.2.6.6a.4.4 0 0 0 .7-.3l-.1-.3-.2-.2a.4.4 0 0 1 .3-.7l.3.1.2.2v.1h.5l.3-.3-.1-.3h-.2a.4.4 0 0 1 .6-.7h.1l.4.2.3-.1a.4.4 0 0 0 0-.6l-.1-.1-.7-.7a.4.4 0 0 1 .5-.7l.1.1.6.6.1.1a.7.7 0 0 0 1.2-.5l-.2-.5-.7-.6-2.6-2.6h-.6l-1.5 1a1.6 1.6 0 0 1-2.5-.8 2 2 0 0 1 .6-1.7zm3.2 1.4.3.1 2.3 2.4a2.6 2.6 0 0 0-1.3-3.7l-.9-.2h-2.1l-2 1.5a.7.7 0 0 0 .3 1.3l.6-.1 1.6-1.2h1.2m-3.7 6.2-.5.5-.3.1h-.3a.4.4 0 0 1 0-.6l.6-.6h.3l.3.2zm0 1.7a.4.4 0 0 0 .6 0l.6-.6v-.6a.4.4 0 0 0-.6 0l-.5.6-.2.3zm-2.5-3.8-.6.6a.4.4 0 0 1-.6-.3v-.2h.1l.6-.6a.4.4 0 0 1 .6.1zm1.3 1-.6.5h-.5l-.1-.2v-.3l.6-.6a.4.4 0 0 1 .6.2zm154.5-15.3 1.3-2-.9-1.4-.4-.3q-.4 0-.5.3l-1.4 2.3zm5.4 3.8-1.2-2 1.9-1.2.9 1.5.2.6q0 .3-.2.5 0 .3-.4.4-.3.3-.6.2zm-1.6 4-2.2-2.3 2.2-2.2v1h2.7l-.9 1.7q0 .3-.4.4l-.6.2h-.8zm-5.4-1.2-.5-.1-.3-.4a1 1 0 0 1 0-1l.5-.7h2.4v2.2zm-1.4-1.6-.9-1.8v-1.1l.3-.3-1-.6 3.1-.8.8 3-1-.5zm7.6-4.8-3.1-.7 1-.6-1.8-2.9h2q.3 0 .5.2.3 0 .4.4l.8 1.2 1-.6zM140.5 38a6 6 0 0 0-4.1-1.7v-5l2.2.6q1 .5 1.9 1.2.8-.8 1.9-1.2 1.1-.5 2.2-.5v5a7 7 0 0 0-4.1 1.6m0-6.4q-.7 0-1.2-.5t-.6-1.3.6-1.2 1.2-.6 1.2.6q.6.4.6 1.2t-.6 1.3-1.2.5m124.1 6.7a6 6 0 0 1-3.5-7.3l-1 .7-.5-.8 2.6-1.5 1.5 2.6-.7.5-.9-1.6a5 5 0 0 0-.4 2q0 1.5 1 2.8t2.4 1.8zm4.2-7.7v-.8h1.7a5 5 0 0 0-3.8-2 5 5 0 0 0-3.3 1.3l-.4-.8 1.7-1q.9-.3 2-.3a6 6 0 0 1 4.2 1.9v-1.3h.9v3zm-.2 9.2-2.7-1.5 1.5-2.6.8.4-1 1.6q1.9-.2 3.2-1.6a5 5 0 0 0 1-4.3h1v1q0 2-1.2 3.7-1.4 1.5-3.3 2l1 .6zm-3.4 83.7-.6-.6.2-.5v-1l-.2-.4.6-.7.4.8a3 3 0 0 1 0 1.7zm1.6 1.5-.7-.6a4 4 0 0 0 .7-3.8q-.2-.6-.7-1.2l.7-.6a5 5 0 0 1 0 6.2m-5.8-2.6q-.4 0-1-.4-.3-.3-.3-.9t.4-1 1-.3.9.4.3.9-.3 1-1 .3m-2.9 3.2v-.3q0-.4.3-.7l.5-.5a5 5 0 0 1 4.2 0q.5.2.6.5l.2.7v.3zm13.9-3.2q-.6 0-1-.4-.4-.3-.4-.9t.4-1 1-.3.9.4q.4.3.4.9t-.4 1-1 .3m-3 3.2v-.3q0-.4.3-.7t.6-.5a5 5 0 0 1 4.1 0q.5.2.6.5.3.3.3.7v.3zm-3.7 45.6h.7v-2.6q.3 0 .6-.3l.3-.6v-2h-.6v2h-.3v-2h-.7v2h-.3v-2h-.6v2l.2.6q.4.3.7.3zm2.6 0h.6v-5.5q-.5 0-.9.4-.3.4-.4 1v1.8h.7zm-6.5 2v-7.9l5.2-4 5.2 4v7.8zm171.3-17.8q-.5 0-.9-.4-.3-.3-.4-.9v-2.2h7q0-.4.2-.7l.7-.5 2.2-.7.3.7-2.3.7-.4.6v2.1q0 .5-.4.9-.3.3-.9.4zm0-4.6v-.8l-.5-.8-.5-.9v-1h.7v.9q0 .3.5.7l.4 1v.9zm2 0v-.8q0-.3-.5-.8l-.4-.9v-1h.6v.9l.5.7.5 1v.9zm2 0q.1-.5 0-.8l-.4-.8-.5-.9v-1h.7v.9l.4.7.5 1v.9zm-.4 24.9v-1q-.7-.2-1.1-.6-.6-.3-.7-1l.6-.3q.1.6.6.9.3.3 1 .3.5 0 1-.3.3-.2.3-.8l-.3-.8q-.3-.3-1.3-.6t-1.3-.7-.4-1q0-.9.5-1.3l1-.4v-1h.8v1a2 2 0 0 1 1.5 1l-.6.4q-.2-.4-.5-.6l-.8-.2q-.6 0-.9.3t-.3.7.3.7 1.2.5 1.4.8.4 1.2-.5 1.2-1.2.6v1zm-35.3 20v-5.1h-1v-4q0-.4.3-.8.3-.3.8-.3h2q.5 0 .9.3.3.4.3.9v3.9h-1v5.1zm1.1-11q-.5 0-.9-.3-.3-.4-.4-1 0-.5.4-.9.4-.3 1-.4.5 0 .9.4.3.4.3 1t-.3.9-1 .3m5.6 11v-4h-1.9l1.6-5.4q0-.5.4-.6l.7-.2.8.2q.3.2.4.6l1.6 5.4h-1.9v4zm.8-11q-.5 0-.9-.3-.4-.4-.4-1t.4-.9 1-.4q.5 0 .9.4.3.4.3 1t-.3.9-1 .3m-9.7-58.1v-2.4q0-.4.3-.7.3-.4.8-.4h2q.3 0 .5.2.3 0 .4.4a3 3 0 0 0 2.8 1.4 3 3 0 0 0 2.8-1.4q0-.3.4-.4l.5-.2h2q.5 0 .8.4.3.3.3.7v2.4H408v-1.5a4 4 0 0 1-4 .7l-1.2-.7v1.5zm6.8-2.5q-.6 0-1.1-.3t-.9-.7l-.6-.6-.7-.3a3 3 0 0 1 1.4-.7l1.9-.3 1.9.3a3 3 0 0 1 1.4.7l-.7.3-.6.6q-.4.5-.9.8zm-5-2q-.8 0-1.2-.5-.6-.5-.6-1.2t.6-1.2 1.2-.5q.7 0 1.2.5t.5 1.2-.5 1.3-1.2.5m10 0q-.7 0-1.2-.5t-.5-1.2.5-1.2 1.2-.5 1.2.5.6 1.2-.6 1.3q-.4.5-1.2.5m-5-1.9q-.7 0-1.2-.5t-.6-1.2.6-1.3 1.2-.5 1.2.5q.6.6.6 1.3t-.6 1.2-1.2.5m1.1-65.4q.2 0 .3-.2l.2-.3q0-.2-.2-.3l-.3-.2-.4.2v.6zm-2.2 0 .4-.2v-.6l-.4-.2q-.2 0-.3.2l-.2.3q0 .2.2.3zm1.1 2.2 1-.3q.6-.3.8-.8h-3.6a2 2 0 0 0 1.8 1.1m0 1.7a4 4 0 0 1-2.7-1 4 4 0 0 1-1-2.7 4 4 0 0 1 1-2.7 4 4 0 0 1 2.7-1 4 4 0 0 1 2.7 1 4 4 0 0 1 .8 4.1 4 4 0 0 1-3.5 2.3m.2-5.4h.4l.2-.3-.1-.2h-.5l-.5-.2-.2-.4v-.2l.1-.1-.6.2q0 .6.4.9.3.3.8.3M51.5 38.3q.8 0 1.3-.5t.5-1.3-.5-1.3-1.3-.5-1.3.5-.5 1.3.5 1.3q.6.5 1.3.5m0 1.2q-1.2 0-2.1-.9t-1-2.1 1-2.1q.9-1 2.1-1t2.1 1q1 .9 1 2.1t-1 2.1q-.9 1-2.1 1m-4.2-2.4h-2.4V36h2.4zm10.8 0h-2.4V36h2.4zM51 32.3v-2.4h1.2v2.4zm0 10.8v-2.4h1.2v2.4zM48.1 34l-1.5-1.4.9-1 1.4 1.6zm7.4 7.5L54.1 40l.8-.8 1.5 1.4zm-1.4-8.3 1.4-1.5 1 .9-1.6 1.4zm-7.5 7.4 1.5-1.4.8.8-1.4 1.5zm2.7 81.9h4.4l.6-2.6h-5.6zm-1 1.2-.9-3.8h8.2l-1 3.8zm-1.2-5h8.8v-1.3h-8.8zm4.4-3.8q0-1.6 1.1-2.7 1-1 2.7-1.1 0 1.5-1 2.5-.8 1-2.2 1.2v1.3h5v3.8H45.9v-3.8h5v-1.3q-1.2-.1-2.2-1.2-.9-1.1-.9-2.5 1.6 0 2.7 1.1 1 1 1.1 2.7m82 102.1v-9h3.6v-2.3h4.7v2.3h3.6v9zm1.2-1.2h9.5v-6.6h-9.5zm3.5-7.8h2.4v-1h-2.4zm1.3-38.6h1.8V168h1.6v-2h-1.6v-1.5h-1.8v1.5H138v1.9h1.6zm.9 4a6 6 0 0 1-3.6-2.4 7 7 0 0 1-1.4-4.3v-3.8l5-1.9 5 2v3.7q0 2.4-1.4 4.3a6 6 0 0 1-3.6 2.5m0-1.2q1.6-.6 2.7-2 1-1.6 1-3.5v-3l-3.7-1.3-3.7 1.4v2.9q0 2 1 3.4a5 5 0 0 0 2.7 2m1.3-43v-4l-1.4-1.2-.6 2.8-4.5-.9.3-1.3 3 .7 1.1-5.3-1.2.4v2.3h-1.3v-3.1l2.6-1.1.9-.3.5-.1.6.2.5.5.6 1q.4.7 1.2 1.1t1.6.5v1.3q-1 0-2-.5t-1.6-1.2l-.4 2 1.4 1.3v4.9zm.3-11.4q-.4 0-.9-.4-.3-.4-.4-1 0-.5.4-.8t1-.4.8.4.4.9q0 .4-.4.9-.3.4-.9.4m-6.5-35.6-.8-.8L137 79q.4-.4.6-1l.2-2.1q0-.9.4-1.6.3-.8 1-1.5 1.3-1.4 3-1.5 1.5-.1 2.5.9t.9 2.6-1.5 2.8q-.8.7-1.5 1-.7.5-1.6.5l-2 .1q-.7.2-1.2.6zm4-4.8q.6.6 1.7.5 1.2-.2 2-1 1-1 1.2-2.1T144 73t-1.8-.5q-1 0-2 1t-1.1 2q-.2 1.3.4 2m4.3 6.5q-.9 0-1.6-.7t-.7-1.6.7-1.6 1.6-.7 1.7.7.6 1.6-.6 1.6-1.7.7m0-1.1q.6 0 .8-.4.4-.3.4-.8t-.4-.8-.8-.3-.8.3-.3.8.3.8.8.4M198.5 39v-7.2l4.2-1.8v1.2l3-1.2v1.8h4.8V39zm1.2-1.2h9.6V33h-4.8v-1.2l-3 1.2v-1.2l-1.8.8zm4.2-1.2h1.2v-2.4h-1.2zm-2.4 0h1.2v-2.4h-1.2zm4.8 0h1.2v-2.4h-1.2zm4.2-4.8h-3l.6-4.8h1.8zm-12.3 50.9v-1.3h3.6a5 5 0 0 0-3.6-3.7l1.2-.1q2.1 0 3.6 1.5 1.5 1.4 1.5 3.6zm7.6 0a6 6 0 0 0-.6-2.6 5 5 0 0 1 5.6-2.4 5 5 0 0 0-3.6 3.6h3.6v1.4zm-1.3-3.8a5 5 0 0 1 1.4-3.6 5 5 0 0 1 3.5-1.5 6 6 0 0 0-2.6 3.2 6 6 0 0 0-2.3 1.9m-1.2-1.2-.7-.5v-.4a7 7 0 0 0-1.5-4.3q1 .5 1.9 1.2.8.9 1.1 1.9zm1.2 49.7-5.8-7 1.7-3.5h8.2l1.7 3.5zm-1.4-7.6h2.8l-.9-1.7h-1zm.8 5.1V121h-3.2zm1.2 0 3.2-3.9h-3.2zm2-5h1.6l-.8-1.8h-1.6zm-6.8 0h1.5l.9-1.8H201zm3.6 97.2V212a5 5 0 0 1-5.2-5.2v-1.3h1.3a5 5 0 0 1 4.5 2.6l.5 1.3.2-.2.2-.2a5 5 0 0 1 3.7-1.6h1.3v1.3a5 5 0 0 1-3.2 4.8q-1 .4-2 .4v3.2zm0-6.4a4 4 0 0 0-1.2-2.8 4 4 0 0 0-2.7-1.1 4 4 0 0 0 2.4 3.6zm1.3 2a4 4 0 0 0 3.6-2.5l.3-1.5a4 4 0 0 0-2.8 1.2 4 4 0 0 0-1.1 2.7M264 82q-2 0-3.2-1.2-1.3-1.5-1.3-3.2 0-1.9 1.3-3.2a4 4 0 0 1 4-1.2l.8.2-1 1h-.7a3 3 0 0 0-2.2 1 3 3 0 0 0-1 2.2 3 3 0 0 0 1 2.2 3 3 0 0 0 2.6 1h.3l1 1zm5 0-1.6-.2 1-1h.7a3 3 0 0 0 2.2-1 3 3 0 0 0 1-2.2 3 3 0 0 0-1-2.3 3 3 0 0 0-2.6-.9h-.3l-1-1 1.7-.3q1.9 0 3.1 1.3t1.3 3.2-1.3 3.2Q271 82 269.1 82m-2.5-.7q-.9-.7-1.4-1.6a5 5 0 0 1 0-4.2q.5-1 1.4-1.6.9.7 1.4 1.6a5 5 0 0 1 0 4.2q-.5.9-1.4 1.6M320 38.7l-4.4-2.4v-3.8l-2.5-1.4 7-3.8 7 3.8v5h-1.3v-4.3l-1.3.7v3.8zm0-5.3 4.4-2.3-4.3-2.3-4.4 2.3zm0 3.9 3.2-1.8v-2.3l-3.1 1.7-3.2-1.7v2.3zm45-8q-.4 0-.6-.3l-.3-.6q0-.4.3-.7l.6-.2q.4 0 .7.2t.2.7-.2.6-.7.3m-1.4 7v-5.6l-2.7-.5.2-.9a13 13 0 0 0 4 .5l3.8-.5.3 1-2.8.4v5.5h-1v-2.7h-.8v2.7zm-.4 2.2-.4-.1v-.7l.4-.1.3.1.1.4v.3zm1.8 0-.3-.1-.1-.3v-.4l.4-.1.3.1.2.4-.2.3zm1.9 0-.4-.1-.1-.3.1-.4.4-.1.3.1.1.4-.1.3zM332.5 82v-1q0-.8.7-1.2.8-.5 2-.5h.8a3 3 0 0 0-.5 1.6V82zm4 0v-1q0-.7.3-1 .3-.6.8-.8l1.3-.5a7 7 0 0 1 3.2 0q.8 0 1.3.5.5.3.8.7.3.5.3 1V82zm9 0v-1l-.1-.9q0-.4-.3-.7h.7q1.2-.1 2 .4.7.4.7 1.2v1zm-7.6-1.3h5.2q-.1-.5-1-.6-.6-.3-1.6-.3t-1.7.3q-.8.2-.9.6m-2.7-2q-.6 0-1-.4t-.4-1 .4-1 1-.3 1 .4.3 1q0 .5-.4.9-.4.3-1 .4m10.6 0q-.4 0-1-.4-.3-.4-.3-1t.4-1q.4-.3 1-.3t.9.4q.4.3.4 1 0 .5-.4.9-.4.3-1 .4m-5.3-.7a2 2 0 0 1-1.4-.6 2 2 0 0 1-.6-1.4q0-.8.6-1.4a2 2 0 0 1 1.4-.6q.9 0 1.4.6.6.5.6 1.4t-.6 1.4a2 2 0 0 1-1.4.6m0-1.3.5-.2.2-.5-.2-.5-.5-.2-.5.2-.2.5.2.5zm-15.1 44.6v5.4h-10.5v-5.4l-.5-.7v-1l.9-2.6h9.7l1 2.6v1zm-4-.6q.5 0 .6-.2.3-.3.2-.6l-.3-1.9h-1.2v2q0 .3.3.5.1.3.4.2m-2.6 0 .6-.2.2-.5v-2h-1.2l-.3 2 .2.5q.2.3.5.2m-2.6 0 .5-.1.2-.5.3-2h-1l-.7 1.8.1.5q.2.3.6.3m7.9 0q.5 0 .6-.3.2-.3.1-.5l-.6-1.9H323l.3 2.1.2.5zm-8 5h8.1v-3.9h-.8l-.6-.5a2 2 0 0 1-2 .4l-.6-.4a2 2 0 0 1-1.3.5l-.8-.1-.6-.4-.6.4-.7.1h-.1zm49 1.5a5 5 0 0 1-3.2-1.2l-1 1-.4.1-.5-.1-.2-.5.2-.5.9-.9a5 5 0 0 1-1.1-3.3q0-2.2 1.5-3.8t3.8-1.5h5.4v5.3q0 2.3-1.6 3.8-1.5 1.6-3.8 1.6m0-1.4q1.6 0 2.9-1.1 1-1.2 1.1-2.9v-4h-4q-1.6 0-2.8 1.2t-1.2 2.8a4 4 0 0 0 .8 2.3l3.4-3.4.5-.2q.3 0 .5.2l.2.5-.2.4-3.5 3.5a4 4 0 0 0 2.3.7M336 166a1 1 0 0 1-.9-.9 1 1 0 0 1 1-.9 1 1 0 0 1 .8 1l-.2.6zm-.9 6.6v-3h-.6v-3h3v3h-.6v1.8h4.8v-3h-1q-1 0-1.8-.7t-.8-1.8q0-.8.4-1.5t1.2-.9q0-1 .9-1.6.7-.7 1.7-.7t1.8.7 1 1.6q.6.3 1 1 .5.5.5 1.4 0 1-.8 1.8-.7.7-1.8.7h-1v3h3v1.2zm5.6-5.4h3.3q.6 0 1-.4.3-.3.4-1 0-.3-.3-.7t-.6-.5l-.6-.2v-.7q-.2-.6-.6-1-.4-.3-1-.3t-1 .4-.4.9l-.1.7-.7.2a1.3 1.3 0 0 0-.4 2.2q.4.4 1 .4m-23 51.8-1.2-.6 2-3.4-1.1-.7-1 1.7-1.2-.6 3.4-6q-.6-.5-1-1.4a5 5 0 0 1 .4-4l1.1.7q-.3.3-.3.8a4 4 0 0 0 .3 2.4q.4.8 1.2 1.3l1.5.8q1 .6 1.5 1.7t.5 2.1a5 5 0 0 1-.6 2.4l-1.2-.7q.3-.4.3-.8a4 4 0 0 0 0-1.9l-.5-.9zm4.4-9.8q-.4 0-.9-.4-.3-.3-.4-.9 0-.6.4-1 .4-.3 1-.3t.9.4q.4.3.4.9t-.4 1-1 .3m-1.6-3.3-.7-.3-.3-.7q0-.4.3-.7t.7-.3.7.3.3.7-.3.7zm42.2 10.5v-4.8q-.7-.2-1.1-.7a2 2 0 0 1-.5-1.3v-3.7h1v3.7h.6v-3.7h1v3.7h.5v-3.7h1v3.7q.1.7-.4 1.3-.4.5-1 .7v4.8zm5.2 0v-4.2h-1.6v-3.7q0-1 .8-1.8t1.8-.8v10.5zm68.6-107.2a4 4 0 0 1-3.2-1.4 5 5 0 0 1-1.3-3.1v-4.3l2.7 2 1.8-2.3 1.8 2.3 2.7-2v4.3a4 4 0 0 1-1.3 3.1 5 5 0 0 1-3.2 1.4m0-1q1.5 0 2.6-1 1-1 1-2.5v-2.5l-2 1.5-1.6-2.2-1.5 2.2-2.1-1.5v2.5q0 1.5 1 2.5t2.6 1m0-18.8a1 1 0 0 1-1-.6h-1V86a4 4 0 0 1-1.7-3.1q0-1.6 1-2.6 1.2-1.2 2.7-1.1t2.6 1q1.1 1.2 1.1 2.7 0 1-.4 1.8t-1.3 1.3v2.8h-1a1 1 0 0 1-1 .6m-1-1.6h2v-.5h-2zm0-1h2v-.4h-2zm-.1-1.5h.7V84l-1.1-1 .5-.6 1 1 1-1 .5.5-1 1.1v1.4h.7q.8-.3 1.2-1t.4-1.4q0-1.2-.8-2-.7-.7-1.9-.7t-2 .8q-.6.7-.7 1.9 0 .8.4 1.4.4.7 1.2 1M433.2 65l1-1-1-1-1 1zm5.6-.2 1-1.7 1 1.7zm-2.3-.4q-.5 0-.9-.4-.4-.3-.4-.9 0-.5.4-.8t.9-.4.9.4.4.8-.4 1-.9.3m0-1.7q-.2 0-.3.2l-.1.2.1.3.3.2q.2 0 .3-.2l.1-.3-.1-.2zm-5 4.2v-.7q0-.4.5-.7t1.2-.3h.5l-.3 1v.7zm2.5 0v-.7q0-.7.7-1 .7-.6 1.8-.5t1.8.4q.7.5.7 1.1v.7zm5.8-1.7q.8 0 1.2.3.5.3.5.7v.7h-1.9v-1.2l-.2-.4zm-3.3.3-1 .2q-.6.1-.6.4h3.2q0-.3-.5-.4zm-.7-18.3.1-.5.2-.3h.2l1.3-.2h.3l.1.3.2.4a3 3 0 0 0 1.3-1.4h-.2l-.1-.2V45l.2-1.3.2-.2h.2l-.3-1h-.4l-1.1-.7a.4.4 0 0 1-.2-.5V41a3 3 0 0 0-1.9-.3l.3.7v.3l-.1.2-1 .9h-.5l-1-.6a4 4 0 0 0-.4 2.3h1.2l.2.2.5 1.2v.3l-.1.2-.4.3zm.8-1.7-.3-.1-.2-.2-.5-1.3v-.2l.1-.3 1-.9h.6l1.1.7.2.2v.2l-.3 1.4-.1.2-.3.1zm-.1 2.7a4 4 0 0 1-3-1.3 4 4 0 0 1 0-5.9 4 4 0 0 1 4.6-.8 4 4 0 0 1 2.6 3.8 4 4 0 0 1-1.3 3 4 4 0 0 1-2.9 1.2m-2 147.4v-4q-.5 0-.9-.6-.4-.4-.4-1v-3h.9v3h.4v-3h1v3h.3v-3h1v3q0 .7-.5 1.1-.3.4-.9.6v4zm4.4 0v-3.5h-1.3v-3q0-.9.6-1.6.7-.6 1.6-.6v8.7zm-6 17.8v-5.8h-1v-1h2v5.9h7.2v1zm1 2.4-.7-.2-.3-.7q0-.4.3-.7l.6-.3q.4 0 .7.3t.3.7-.3.7zm.4-3.8v-3h3v3zm1-1h1v-1h-1zm2.4 1v-3h2.9v3zm1-1h1v-1h-1zm1.4 4.8-.7-.2-.2-.7q0-.4.2-.7.4-.3.7-.3.4 0 .7.3t.3.7-.3.7zm-5.3 20h3.4l.5-2h-4.4zm-.8 1-.7-3h6.4l-.7 3zm-1-4h7v-1h-7zm3.5-3q0-1.3.9-2.2.9-.8 2.1-.8 0 1-.7 2a3 3 0 0 1-1.8 1v1h4v3h-9v-3h4v-1a3 3 0 0 1-1.8-1q-.7-1-.7-2 1.2 0 2.1.8t.9 2.2"/>
</svg>
