<svg xmlns="http://www.w3.org/2000/svg" width="276" height="137" fill="none">
  <g clip-path="url(#a)">
    <circle cx="23.2" cy="55.2" r="22.2" fill="#000"/>
    <circle cx="170" cy="97" r="16" fill="#000"/>
    <circle cx="96" cy="97" r="16" fill="#000"/>
    <circle cx="245" cy="97" r="16" fill="#000"/>
    <circle cx="97" cy="35" r="16" fill="#000"/>
    <circle cx="170" cy="35" r="16" fill="#000"/>
    <circle cx="245" cy="35" r="16" fill="#000"/>
    <text xml:space="preserve" fill="#000" font-family="TeX Gyre Schola" font-size="7" letter-spacing="0em" style="white-space:pre"><tspan x="225.8" y="124">Strong Food </tspan><tspan x="231.8" y="135">Security</tspan></text>
    <text xml:space="preserve" fill="#000" font-family="TeX Gyre Schola" font-size="7" letter-spacing="0em" style="white-space:pre"><tspan x="144" y="124">Urban Farming</tspan></text>
    <text xml:space="preserve" fill="#000" font-family="TeX Gyre Schola" font-size="7" letter-spacing="0em" style="white-space:pre"><tspan x="71.6" y="124">Entertainment</tspan></text>
    <text xml:space="preserve" fill="#000" font-family="TeX Gyre Schola" font-size="7" letter-spacing="0em" style="white-space:pre"><tspan x="6" y="91.9">Weak Food </tspan><tspan x="10.1" y="102.9">Security</tspan></text>
    <text xml:space="preserve" fill="#000" font-family="TeX Gyre Schola" font-size="7" letter-spacing="0em" style="white-space:pre"><tspan x="219.1" y="61.7">Increasing Food </tspan><tspan x="227.2" y="72.7">Production</tspan></text>
    <text xml:space="preserve" fill="#000" font-family="TeX Gyre Schola" font-size="7" letter-spacing="0em" style="white-space:pre"><tspan x="149.2" y="61.7">Agricultural </tspan><tspan x="155.4" y="72.7">Lifestyle</tspan></text>
    <text xml:space="preserve" fill="#000" font-family="TeX Gyre Schola" font-size="7" letter-spacing="0em" style="white-space:pre"><tspan x="79.5" y="61.7">Education</tspan></text>
    <text xml:space="preserve" fill="#000" font-family="TeX Gyre Schola" font-size="7" font-weight="bold" letter-spacing="0em" style="white-space:pre"><tspan x="231.3" y="7.6">Results</tspan></text>
    <text xml:space="preserve" fill="#000" font-family="TeX Gyre Schola" font-size="7" font-weight="bold" letter-spacing="0em" style="white-space:pre"><tspan x="159.1" y="7.6">Goals</tspan></text>
    <text xml:space="preserve" fill="#000" font-family="TeX Gyre Schola" font-size="7" font-weight="bold" letter-spacing="0em" style="white-space:pre"><tspan x="81" y="7.6">Methods</tspan></text>
    <text xml:space="preserve" fill="#000" font-family="TeX Gyre Schola" font-size="7" font-weight="bold" letter-spacing="0em" style="white-space:pre"><tspan x="13.7" y="7.6">Issue</tspan></text>
    <path fill="#000" d="m211 75.2-4.2 5.1V70zm-75.2 0-4 5.1V70zm-75.1 0L56 80.3V70z"/>
    <path fill="#fff" d="m162.2 43-.2-.6q0-.3.2-.4l1.7-1.8a8 8 0 0 1-1.7-4.7q0-3.2 2.2-5.3a7 7 0 0 1 5.3-2.2h7.4v7.5q0 3-2.1 5.2a7 7 0 0 1-5.3 2.2 7 7 0 0 1-4.8-1.7l-1.7 1.7q-.2.3-.5.2t-.5-.2m4-4.1.5.2q.3 0 .5-.2l4-4 .2-.4q0-.3-.2-.5l-.5-.2q-.3 0-.5.2l-4 4-.2.4q0 .3.3.5m-74.9 67.8q-2.3 0-3.8-1.6-1.6-1.5-1.6-3.7v-6.4h10.7v6.4q0 2.1-1.6 3.8-1.6 1.5-3.7 1.5m-2-7 .6-.2q.3-.2.2-.6t-.2-.6l-.6-.3q-.5 0-.6.3-.3.2-.3.6l.3.6q.1.2.6.2m2 3.4a3 3 0 0 0 1.6-.4q.7-.5.7-1.2H89q0 .8.7 1.2t1.7.4m2-3.4q.3 0 .5-.2l.3-.6q0-.4-.3-.6l-.6-.3-.6.3-.2.6.2.6q.2.3.6.2m7.3 0A5 5 0 0 1 98 99v-5.5h-2.8V88H106v6.3q0 2.3-1.6 3.8-1.5 1.5-3.7 1.6m-2-6.9.6-.2.2-.6q0-.5-.2-.6l-.6-.3q-.5 0-.6.3-.3.2-.3.6l.3.6zm-.4 3.4h4.7q0-.7-.7-1.2a3 3 0 0 0-1.6-.4q-.7 0-1.6.3-.8.4-.8 1.3m4.3-3.4q.5 0 .6-.2l.3-.6q0-.5-.3-.6l-.6-.3-.6.3-.2.6.2.6zM16.2 68q-.9 0-1.5-.7t-.7-1.5V53.6q0-1 .7-1.6t1.5-.7h1.6v-2.6q0-2.5 1.7-4a5 5 0 0 1 4-1.7q2.5 0 4 1.7a6 6 0 0 1 1.7 4v2.6h1.6q.9 0 1.5.7t.7 1.6v12.2q0 .9-.7 1.5t-1.5.7zm7.3-6.1q.9 0 1.6-.7.6-.7.6-1.5 0-1-.6-1.6t-1.6-.7-1.6.7q-.6.6-.6 1.6t.6 1.5 1.6.7m-3.8-10.6h7.6v-2.6q0-1.6-1-2.7a4 4 0 0 0-2.8-1.2q-1.6 0-2.7 1.2t-1.1 2.7zM105 39.2V33l-8.3 4.5-9.7-5.2 9.7-5.3 9.6 5.3v7zm-8.3 3.6-6.4-3.5V35l6.4 3.5L103 35v4.4zm70.3 63.7q-.5 0-1-.3-.5-.4-.6-1l-1-4.3h11.8l-1.1 4.3q-.2.6-.6 1-.5.3-1 .3zm3.3-13.1q0-2.2 1.6-3.7t3.7-1.7q0 2-1.4 3.5-1.4 1.4-3.2 1.8v2.3h7.5v2.7q0 .8-.5 1.2-.4.6-1.2.5h-13q-.9 0-1.3-.5t-.5-1.2v-2.7h7.6v-2.3a6 6 0 0 1-3.3-1.8Q165 90 165 88q2.2 0 3.7 1.7 1.5 1.5 1.7 3.7m75 12.3L245 96l-4.2-1.4H234v-1.4h6.2l7.4-5.3 1 1-4.5 3.2 3 .9 7.7-4.7.9 1-8.3 6.3-.6 10zm-6.2-14q-.8.1-1.3-.4t-.5-1.3.5-1.3 1.3-.5 1.3.5.5 1.3-.5 1.3-1.3.5M235 38.4a4 4 0 0 1 2.1-3.6q2.1-1.3 4.8-1.3t4.8 1.3a4 4 0 0 1 2 3.6zm0 3.5v-1.4h13.8v1.4zm.8 3.5-.6-.3-.2-.6V44h13.8v.6q0 .4-.3.6-.2.3-.5.3zm14.9 0v-7q0-2.5-1.8-4.2a9 9 0 0 0-4.3-2.3l-.4-3h4.7V25h1.4v4h4.8l-1.5 14.8q0 .7-.6 1.1t-1.1.5z"/>
  </g>
  <defs>
    <clipPath id="a">
      <path fill="#fff" d="M0 0h276v137H0z"/>
    </clipPath>
  </defs>
</svg>
