<svg xmlns="http://www.w3.org/2000/svg" width="274" height="93" fill="none">
  <text xml:space="preserve" fill="#000" font-family="TeX Gyre Schola" font-size="7" letter-spacing="0em" style="white-space:pre"><tspan x="207.9" y="80.65">Learning by senses</tspan></text>
  <text xml:space="preserve" fill="#000" font-family="TeX Gyre Schola" font-size="7" letter-spacing="0em" style="white-space:pre"><tspan x="113.77" y="80.65">Entertainment</tspan></text>
  <text xml:space="preserve" fill="#000" font-family="TeX Gyre Schola" font-size="7" letter-spacing="0em" style="white-space:pre"><tspan x="17.12" y="80.31">Education </tspan><tspan x="12.49" y="91.31">(Agriculture)</tspan></text>
  <text xml:space="preserve" fill="#000" font-family="TeX Gyre Schola" font-size="28" font-weight="bold" letter-spacing="0em" style="white-space:pre"><tspan x="79.16" y="41.21">+</tspan></text>
  <text xml:space="preserve" fill="#000" font-family="TeX Gyre Schola" font-size="28" font-weight="bold" letter-spacing="0em" style="white-space:pre"><tspan x="177.16" y="41.21">+</tspan></text>
  <circle cx="239.03" cy="55.23" r="12.5" fill="#A4B0D7"/>
  <circle cx="155.15" cy="52" r="16" fill="#000"/>
  <circle cx="118.15" cy="52" r="16" fill="#000"/>
  <circle cx="54.15" cy="52" r="16" fill="#000"/>
  <circle cx="16.15" cy="52" r="16" fill="#000"/>
  <circle cx="260.65" cy="33.5" r="12.5" fill="#D9839F"/>
  <circle cx="216.65" cy="33.5" r="12.5" fill="#E1ABDA"/>
  <circle cx="238.65" cy="12.5" r="12.5" fill="#B9DA99"/>
  <circle cx="137.15" cy="16" r="16" fill="#000"/>
  <circle cx="35.15" cy="16" r="16" fill="#000"/>
  <path fill="#fff" d="M239.15 58.1a2.66 2.66 0 0 0 2.7-2.6q0-1.1-.79-1.84a2.7 2.7 0 0 0-1.91-.76 2.66 2.66 0 0 0-2.7 2.6q0 1.1.78 1.84.8.76 1.92.76m0-.85q-.75 0-1.29-.51a1.7 1.7 0 0 1-.53-1.24q0-.73.53-1.24t1.29-.51 1.29.51.53 1.24-.53 1.24-1.29.51m0 2.75a7.6 7.6 0 0 1-7-4.5 7.6 7.6 0 0 1 7-4.5 7.6 7.6 0 0 1 7 4.5 7.5 7.5 0 0 1-7 4.5m-192.8-.07a.7.7 0 0 1-.2-.5q0-.28.2-.48l1.75-1.74a7.3 7.3 0 0 1-1.71-4.76 7.2 7.2 0 0 1 2.16-5.28A7.2 7.2 0 0 1 53.83 45h7.45v7.45q0 3.12-2.17 5.28a7.2 7.2 0 0 1-5.28 2.17 7.2 7.2 0 0 1-4.75-1.72l-1.75 1.75q-.2.2-.49.2a.7.7 0 0 1-.49-.2m4.05-4.05q.2.2.47.22a.6.6 0 0 0 .47-.18l3.99-3.97a.7.7 0 0 0 .21-.5.7.7 0 0 0-.2-.5.7.7 0 0 0-.5-.2q-.3 0-.49.2l-3.95 3.96q-.2.2-.2.48 0 .29.2.49m98.87-1.62a1.4 1.4 0 0 1-1.05.13 1.4 1.4 0 0 1-.85-.63q-.37-.6-.12-1.25.24-.65.9-.88l8.4-2.85.64 1.29zm.57 6.23v-5.3l8.83-4.64-.44-.87 5.17-2.58.65 1.3-6.81 5.15v6.94zm1.63-10.1q-1.35 0-2.27-.92a3 3 0 0 1-.93-2.27q0-1.34.93-2.27a3 3 0 0 1 2.27-.93q1.35 0 2.27.93.93.93.93 2.27t-.93 2.27a3 3 0 0 1-2.27.93m-41.32 4.11a3.1 3.1 0 0 1 1.7-2.83 7.5 7.5 0 0 1 3.8-.98q2.1 0 3.8.98a3.1 3.1 0 0 1 1.7 2.83zm0 2.75v-1.12h11v1.12zm.67 2.74a.7.7 0 0 1-.47-.2.6.6 0 0 1-.2-.46v-.46h11v.46q0 .27-.2.47a.6.6 0 0 1-.47.19zm11.84 0v-5.49q0-1.95-1.43-3.3t-3.42-1.79l-.3-2.3h3.76V44h1.11v3.11h3.77l-1.2 11.68q-.06.53-.44.87-.39.34-.9.34zM24.1 56.24v-6.2l-8.28 4.5-9.67-5.28L15.82 44l9.67 5.26v6.98zm-8.28 3.56-6.34-3.45v-4.43l6.34 3.44 6.33-3.44v4.43zM213.49 40q.93 0 1.51-.48.6-.47.9-1.27.25-.7.52-1.04a7 7 0 0 1 1.14-.97 6 6 0 0 0 1.5-1.65q.55-.93.55-2.18 0-1.72-1.2-2.85a4.2 4.2 0 0 0-3.03-1.15q-1.77 0-2.97 1.09a3.7 3.7 0 0 0-1.26 2.74h.9q.05-1.3 1-2.14t2.33-.84q1.41 0 2.37.91.97.9.97 2.24 0 1.05-.5 1.85-.51.8-1.32 1.38-.76.54-1.16 1.01-.4.48-.65 1.16a3 3 0 0 1-.62 1 1.4 1.4 0 0 1-.98.34 1.4 1.4 0 0 1-1.42-1.2h-.92q.06.87.73 1.46.68.6 1.6.59m6.8-3.22a7 7 0 0 0 1.36-1.98q.5-1.11.5-2.39t-.5-2.42A6 6 0 0 0 220.3 28l-.64.58a5.5 5.5 0 0 1 1.6 3.83q0 1.09-.43 2.06a6 6 0 0 1-1.19 1.73zm-4.9-3.01q.6 0 1.01-.4.42-.39.42-.96t-.42-.96-1.02-.4-1.02.4-.42.96.42.96 1.02.4M261.92 41v-4.15l-2.01-1.74-.8 3.28-4.96-.91.22-1 3.75.7 1.39-6.4-1.95.73v2.36h-1.1v-3.02l3.1-1.19q.57-.21.85-.29t.5-.07q.36 0 .65.16.3.17.48.45l.8 1.14a4.3 4.3 0 0 0 3.3 1.79v1a6 6 0 0 1-2.26-.56 5 5 0 0 1-1.9-1.57l-.61 2.79 1.65 1.46V41zm.16-12.4q-.6 0-1-.37a1.2 1.2 0 0 1-.42-.93q0-.54.41-.92.42-.38 1.01-.38t1.01.38.42.92-.42.93q-.4.38-1 .38M137.15 25l-1-.94q-2.36-2.25-3.92-3.87a28 28 0 0 1-2.45-2.87 9 9 0 0 1-1.27-2.3 6 6 0 0 1-.36-2.1q0-2.1 1.35-3.5A4.5 4.5 0 0 1 132.85 8q1.26 0 2.37.62a6 6 0 0 1 1.93 1.8 6 6 0 0 1 1.94-1.8 5 5 0 0 1 2.36-.62q2 0 3.35 1.41t1.35 3.5a6 6 0 0 1-.36 2.11q-.36 1.05-1.27 2.3-.9 1.25-2.45 2.87a114 114 0 0 1-3.93 3.87zm106.75-8q-.55 0-.94-.38-.38-.39-.44-.96h.74a.63.63 0 0 0 .63.55q.28 0 .47-.2.2-.22.2-.52t-.2-.5a.6.6 0 0 0-.47-.21h-4.74v-.8h4.74q.58 0 .99.45.4.45.4 1.07t-.4 1.06-.99.44m-4.75-5.42v-.8h6.8q.38 0 .65-.28a1 1 0 0 0 .27-.71 1 1 0 0 0-.27-.71 1 1 0 0 0-.66-.29 1 1 0 0 0-.6.23 1 1 0 0 0-.29.6h-.73q.05-.7.5-1.16t1.13-.46 1.17.52.48 1.27-.48 1.27-1.17.52zm8.5 4.37v-.8a.8.8 0 0 0 .56-.32q.21-.27.21-.66a1 1 0 0 0-.26-.71 1 1 0 0 0-.66-.29h-8.35v-.79h8.35q.69 0 1.17.52.48.51.48 1.27 0 .71-.43 1.22a1.5 1.5 0 0 1-1.07.56M230.67 17v-2.11a5 5 0 0 1-1.12-1.58q-.4-.88-.4-1.84 0-1.86 1.25-3.17a4 4 0 0 1 3.02-1.3q1.47 0 2.62.92 1.16.9 1.5 2.37l.6 2.44q.04.22-.08.4a.4.4 0 0 1-.35.17h-1.03v1.74q0 .37-.25.64a.8.8 0 0 1-.6.26h-1.17V17zM29.15 24.9v-4a9 9 0 0 1-2.22-2.97 8 8 0 0 1-.78-3.49q0-3.5 2.46-5.98A8 8 0 0 1 34.6 6a8.35 8.35 0 0 1 8.15 6.22l1.17 4.61a.8.8 0 0 1-.15.74.8.8 0 0 1-.68.33h-2.03v3.3q0 .7-.5 1.2-.51.5-1.2.5h-2.3v2zm5.35-5.54q.37 0 .62-.25a.8.8 0 0 0 .25-.62.8.8 0 0 0-.25-.62.8.8 0 0 0-.62-.25.8.8 0 0 0-.62.25.8.8 0 0 0-.25.62.84.84 0 0 0 .87.87m-.59-2.97h1.21q0-.54.18-.94t.67-.94q.45-.48.85-.99.4-.5.4-1.26 0-.99-.75-1.68a2.7 2.7 0 0 0-1.9-.69q-.9 0-1.66.51t-1.08 1.34l1.08.47q.22-.54.67-.86t1-.32q.6 0 1.01.34t.41.89-.32.95-.75.83q-.5.53-.76 1.04-.26.53-.26 1.3"/>
</svg>
