<svg xmlns="http://www.w3.org/2000/svg" width="495" height="84" fill="none">
  <circle cx="247" cy="40" r="20" stroke="#000" stroke-dasharray="2 2" stroke-width=".5"/>
  <text xml:space="preserve" fill="#000" font-family="TeX Gyre Schola" font-size="7" letter-spacing="0em" style="white-space:pre"><tspan x="4.4" y="42.1">In</tspan></text>
  <text xml:space="preserve" fill="#000" font-family="TeX Gyre Schola" font-size="7" letter-spacing="0em" style="white-space:pre"><tspan x="480.3" y="42.1">Out</tspan></text>
  <text xml:space="preserve" fill="#000" font-family="TeX Gyre Schola" font-size="7" letter-spacing="0em" style="white-space:pre"><tspan x="80.1" y="49.1">Lobby</tspan></text>
  <circle cx="89.4" cy="46.7" r="20.1" stroke="#000" stroke-width=".5"/>
  <text xml:space="preserve" fill="#000" font-family="TeX Gyre Schola" font-size="7" letter-spacing="0em" style="white-space:pre"><tspan x="26" y="20.1">Entrance</tspan><tspan x="27.1" y="31.1">(Level 3)</tspan></text>
  <circle cx="41" cy="23" r="20" stroke="#000" stroke-width=".5"/>
  <text xml:space="preserve" fill="#000" font-family="TeX Gyre Schola" font-size="7" letter-spacing="0em" style="white-space:pre"><tspan x="27.6" y="62.4">Parking</tspan></text>
  <circle cx="41" cy="61" r="20" stroke="#000" stroke-width=".5"/>
  <text xml:space="preserve" fill="#000" font-family="TeX Gyre Schola" font-size="7" letter-spacing="0em" style="white-space:pre"><tspan x="127.2" y="38.1">Retail</tspan></text>
  <circle cx="137.3" cy="35.9" r="16.5" stroke="#000" stroke-width=".5"/>
  <text xml:space="preserve" fill="#000" font-family="TeX Gyre Schola" font-size="7" letter-spacing="0em" style="white-space:pre"><tspan x="176.2" y="30.1">Bridge</tspan></text>
  <circle cx="187.3" cy="28.7" r="16.5" stroke="#000" stroke-width=".5"/>
  <circle cx="237.2" cy="21.5" r="16.5" fill="#fff" stroke="#000" stroke-width=".5"/>
  <text xml:space="preserve" fill="#000" font-family="TeX Gyre Schola" font-size="7" letter-spacing="0em" style="white-space:pre"><tspan x="225.5" y="23.1">Station</tspan></text>
  <text xml:space="preserve" fill="#000" font-family="TeX Gyre Schola" font-size="7" letter-spacing="0em" style="white-space:pre"><tspan x="397.1" y="35.3">Lobby</tspan></text>
  <circle cx="407.1" cy="32.8" r="19.6" stroke="#000" stroke-width=".5"/>
  <text xml:space="preserve" fill="#000" font-family="TeX Gyre Schola" font-size="7" letter-spacing="0em" style="white-space:pre"><tspan x="441.6" y="63.4">Parking</tspan></text>
  <circle cx="455" cy="61" r="20" stroke="#000" stroke-width=".5"/>
  <text xml:space="preserve" fill="#000" font-family="TeX Gyre Schola" font-size="7" letter-spacing="0em" style="white-space:pre"><tspan x="346.5" y="46.1">Retail</tspan></text>
  <circle cx="356.6" cy="44.1" r="16.5" stroke="#000" stroke-width=".5"/>
  <text xml:space="preserve" fill="#000" font-family="TeX Gyre Schola" font-size="7" letter-spacing="0em" style="white-space:pre"><tspan x="295.1" y="55.8">Bridge</tspan></text>
  <circle cx="306.2" cy="52.4" r="16.5" stroke="#000" stroke-width=".5"/>
  <circle cx="255.7" cy="60.6" r="16.5" fill="#fff" stroke="#000" stroke-width=".5"/>
  <text xml:space="preserve" fill="#000" font-family="TeX Gyre Schola" font-size="7" letter-spacing="0em" style="white-space:pre"><tspan x="243.9" y="64">Station</tspan></text>
  <path fill="#000" d="m285 60-3.7 4.4v-8.7zM66.2 58.4l-3 4.3v-8.6zM334 51.5l-3 4v-7.9zm48-8-3 4v-7.9zm-266-8-3 4v-7.9zm48-7.5-3 4.4v-8.7zm267.8-3.6-3 4.3v-8.6zm-365.6 0-3 4.3v-8.6zM216 21l-3.7 4.4v-8.7zm215.8 37.4-3 4.3v-8.6z"/>
  <text xml:space="preserve" fill="#000" font-family="TeX Gyre Schola" font-size="7" letter-spacing="0em" style="white-space:pre"><tspan x="440" y="20.1">Entrance</tspan><tspan x="441.1" y="31.1">(Level 3)</tspan></text>
  <circle cx="455" cy="23" r="20" stroke="#000" stroke-width=".5"/>
  <circle cx="255.7" cy="60.6" r="16.5" fill="#fff" stroke="#000" stroke-width=".5"/>
  <text xml:space="preserve" fill="#000" font-family="TeX Gyre Schola" font-size="7" letter-spacing="0em" style="white-space:pre"><tspan x="243.9" y="64">Station</tspan></text>
</svg>
