<svg xmlns="http://www.w3.org/2000/svg" width="237" height="110" fill="none">
  <path fill="#000" d="m124 84.63-3.75 6.06V78.57zm25.42-29.07 3-6.33-9.98 5.76zm-53-4.61 3 6.34-9.98-5.76z"/>
  <text xml:space="preserve" fill="#000" font-family="TeX Gyre Schola" font-size="5" letter-spacing="0em" style="white-space:pre"><tspan x="167.81" y="20.51">Daylighting</tspan></text>
  <text xml:space="preserve" fill="#000" font-family="TeX Gyre Schola" font-size="5" letter-spacing="0em" style="white-space:pre"><tspan x="213.24" y="76.51">Mixed-use</tspan></text>
  <text xml:space="preserve" fill="#000" font-family="TeX Gyre Schola" font-size="5" letter-spacing="0em" style="white-space:pre"><tspan x="47" y="29.51">Green spaces</tspan></text>
  <text xml:space="preserve" fill="#000" font-family="TeX Gyre Schola" font-size="5" letter-spacing="0em" style="white-space:pre"><tspan x="206.44" y="63.51">Green spaces</tspan></text>
  <text xml:space="preserve" fill="#000" font-family="TeX Gyre Schola" font-size="5" letter-spacing="0em" style="white-space:pre"><tspan x="0" y="73.51">Wind catcher</tspan></text>
  <text xml:space="preserve" fill="#000" font-family="TeX Gyre Schola" font-size="5" letter-spacing="0em" style="white-space:pre"><tspan x="0" y="97.51">Rainwater collection</tspan></text>
  <text xml:space="preserve" fill="#000" font-family="TeX Gyre Schola" font-size="5" letter-spacing="0em" style="white-space:pre"><tspan x="175.49" y="40.51">Skylight</tspan></text>
  <text xml:space="preserve" fill="#000" font-family="TeX Gyre Schola" font-size="5" letter-spacing="0em" style="white-space:pre"><tspan x="208.65" y="102.51">Void/Atrium</tspan></text>
  <text xml:space="preserve" fill="#000" font-family="TeX Gyre Schola" font-size="5" letter-spacing="0em" style="white-space:pre"><tspan x="202.58" y="89.51">Private garden</tspan></text>
  <path stroke="#000" stroke-width=".1" d="M47 30.95h48m52.62-9H195m-50 20h50m-10 23h52m-46.79 13H237m-48 13h48m-58 13h58m-237-29h54m-54 24h59.36"/>
  <circle cx="79.71" cy="81.71" r="26.71" stroke="#000" stroke-width=".5"/>
  <circle cx="121.71" cy="28.71" r="26.71" stroke="#000" stroke-width=".5"/>
  <circle cx="163.71" cy="81.71" r="26.71" stroke="#000" stroke-width=".5"/>
  <text xml:space="preserve" fill="#000" font-family="TeX Gyre Schola" font-size="7" letter-spacing="0em" style="white-space:pre"><tspan x="67.51" y="74.31">Desert-</tspan><tspan x="62.41" y="85.31">responsive </tspan><tspan x="59.76" y="96.31">architecture</tspan></text>
  <text xml:space="preserve" fill="#000" font-family="TeX Gyre Schola" font-size="7" letter-spacing="0em" style="white-space:pre"><tspan x="102.26" y="26.31">Sustainable </tspan><tspan x="101.77" y="37.31">architecture</tspan></text>
  <text xml:space="preserve" fill="#000" font-family="TeX Gyre Schola" font-size="7" letter-spacing="0em" style="white-space:pre"><tspan x="154.28" y="79.31">Inner </tspan><tspan x="147.56" y="90.31">courtyard</tspan></text>
</svg>
