<svg xmlns="http://www.w3.org/2000/svg" width="465" height="230" fill="none">
  <text xml:space="preserve" fill="#000" font-family="TeX Gyre Schola" font-size="5" font-style="italic" letter-spacing="0em" style="white-space:pre"><tspan x="1.5" y="174.5">Legend</tspan></text>
  <text xml:space="preserve" fill="#000" font-family="TeX Gyre Schola" font-size="5" font-style="italic" letter-spacing="0em" style="white-space:pre"><tspan x="83" y="185.6">ESOG</tspan></text>
  <text xml:space="preserve" fill="#000" font-family="TeX Gyre Schola" font-size="5" letter-spacing="0em" style="white-space:pre"><tspan x="102" y="188.6">Evolutionary Simulation Output Generation</tspan></text>
  <text xml:space="preserve" fill="#000" font-family="TeX Gyre Schola" font-size="5" font-style="italic" letter-spacing="0em" style="white-space:pre"><tspan x="216" y="185.6">ORA</tspan></text>
  <text xml:space="preserve" fill="#000" font-family="TeX Gyre Schola" font-size="5" letter-spacing="0em" style="white-space:pre"><tspan x="235" y="188.6">Objective Routes Aggregation</tspan></text>
  <text xml:space="preserve" fill="#000" font-family="TeX Gyre Schola" font-size="5" font-style="italic" letter-spacing="0em" style="white-space:pre"><tspan x="325" y="185.6">CTOI</tspan></text>
  <text xml:space="preserve" fill="#000" font-family="TeX Gyre Schola" font-size="5" letter-spacing="0em" style="white-space:pre"><tspan x="344" y="188.6">Clustered Transit Objective Indexing</tspan></text>
  <text xml:space="preserve" fill="#000" font-family="TeX Gyre Schola" font-size="5" font-style="italic" letter-spacing="0em" style="white-space:pre"><tspan x="83" y="197.4">KCI</tspan></text>
  <text xml:space="preserve" fill="#000" font-family="TeX Gyre Schola" font-size="5" letter-spacing="0em" style="white-space:pre"><tspan x="102" y="200.4">K-means Clustering Implementation</tspan></text>
  <text xml:space="preserve" fill="#000" font-family="TeX Gyre Schola" font-size="5" font-style="italic" letter-spacing="0em" style="white-space:pre"><tspan x="216" y="197.4">DSI</tspan></text>
  <text xml:space="preserve" fill="#000" font-family="TeX Gyre Schola" font-size="5" letter-spacing="0em" style="white-space:pre"><tspan x="235" y="200.4">Dominant Solutions Identification</tspan></text>
  <text xml:space="preserve" fill="#000" font-family="TeX Gyre Schola" font-size="5" font-style="italic" letter-spacing="0em" style="white-space:pre"><tspan x="325" y="197.4">PTRO</tspan></text>
  <text xml:space="preserve" fill="#000" font-family="TeX Gyre Schola" font-size="5" letter-spacing="0em" style="white-space:pre"><tspan x="344" y="200.4">Primary Transit Routes Optimization</tspan></text>
  <text xml:space="preserve" fill="#000" font-family="TeX Gyre Schola" font-size="5" font-style="italic" letter-spacing="0em" style="white-space:pre"><tspan x="83" y="209.1">COI</tspan></text>
  <text xml:space="preserve" fill="#000" font-family="TeX Gyre Schola" font-size="5" letter-spacing="0em" style="white-space:pre"><tspan x="102" y="212.1">Individual Objective Prioritization</tspan></text>
  <text xml:space="preserve" fill="#000" font-family="TeX Gyre Schola" font-size="5" font-style="italic" letter-spacing="0em" style="white-space:pre"><tspan x="216" y="209.1">OPV</tspan></text>
  <text xml:space="preserve" fill="#000" font-family="TeX Gyre Schola" font-size="5" letter-spacing="0em" style="white-space:pre"><tspan x="235" y="212.1">Objective Patterns Visualization</tspan></text>
  <text xml:space="preserve" fill="#000" font-family="TeX Gyre Schola" font-size="5" font-style="italic" letter-spacing="0em" style="white-space:pre"><tspan x="325" y="209.1">STRO</tspan></text>
  <text xml:space="preserve" fill="#000" font-family="TeX Gyre Schola" font-size="5" letter-spacing="0em" style="white-space:pre"><tspan x="344" y="212.1">Southern Transit Routes Outcomes Optimization</tspan></text>
  <text xml:space="preserve" fill="#000" font-family="TeX Gyre Schola" font-size="5" font-style="italic" letter-spacing="0em" style="white-space:pre"><tspan x="83" y="222.8">IOP</tspan></text>
  <text xml:space="preserve" fill="#000" font-family="TeX Gyre Schola" font-size="5" letter-spacing="0em" style="white-space:pre"><tspan x="102" y="225.8">Composite Objectives Indexing</tspan></text>
  <path stroke="#000" stroke-width=".5" d="M1 184h10v9H1z"/>
  <text xml:space="preserve" fill="#000" font-family="TeX Gyre Schola" font-size="5" letter-spacing="0em" style="white-space:pre"><tspan x="16" y="189.5">Solution clustering</tspan></text>
  <path stroke="#000" stroke-width=".5" d="m6 196 5 5-5 5-5-5z"/>
  <text xml:space="preserve" fill="#000" font-family="TeX Gyre Schola" font-size="5" letter-spacing="0em" style="white-space:pre"><tspan x="16" y="201.5">Cluster/Cluster no.</tspan></text>
  <rect width="10.4" height="4.6" x="1" y="210" stroke="#000" stroke-width=".5" rx="2.3"/>
  <text xml:space="preserve" fill="#000" font-family="TeX Gyre Schola" font-size="5" letter-spacing="0em" style="white-space:pre"><tspan x="16" y="213.5">Top</tspan></text>
  <text xml:space="preserve" fill="#000" font-family="TeX Gyre Schola" font-size="5" letter-spacing="0em" style="white-space:pre"><tspan x="16" y="225.5">Solution</tspan></text>
  <path stroke="#000" stroke-width=".2" d="M1.1 11.7h88.5v136.8H1.1zm95.5 0h167.6v136.8H96.6zm174.6 0h88.5v136.8h-88.5zm95.5 0h91.4v136.8h-91.4z"/>
  <path stroke="#000" stroke-dasharray="2 2" stroke-width=".1" d="M25.6 49.2V95m45.3-45.8v50.6M109.5 43v52m27-25.5v47.2m34.3-67.5v53m33.7-53v48.7m21.7-48.7v73.3m64.2-73.3v44.4m17.3-44.4v62.7m17.4-62.7v72.3m16.4-72.3v82m43.4-82v44.4m30-44.4v44.4m29.8-44.4v44.4"/>
  <path stroke="#000" stroke-width=".1" d="M34.8 37.6h57.8m0 0V35a5 5 0 0 1 5-5h48.9a5 5 0 0 1 5 5v2.7m-58.9 0v15.8a5 5 0 0 0 5 5h48.9a5 5 0 0 0 5-5V37.6m0 0H435M34.8 114.8h57.8m0 0V111a5 5 0 0 1 5-5h48.9a5 5 0 0 1 5 5v4.7m-58.9-1v8a5 5 0 0 0 5 5h48.9a5 5 0 0 0 5-5v-7m0 0h36.2m0 0V111a5 5 0 0 1 5-5h38.7a5 5 0 0 1 5 5v5.9m-48.7-1.2v7a5 5 0 0 0 5 5h38.7a5 5 0 0 0 5-5V117m0 0h30.8m0 0v-10.7a5 5 0 0 1 5-5h192.3M267.2 117h40.5m-40.5 0v12.7m0 0h58.4m-58.4 0v4.7a5 5 0 0 0 5 5H342"/>
  <path fill="#fff" stroke="#939393" stroke-width=".1" d="M341.5 146.6a7.7 7.7 0 1 0 0-15.4 7.7 7.7 0 0 0 0 15.4Z"/>
  <text xml:space="preserve" fill="#939393" font-family="TeX Gyre Schola" font-size="6" letter-spacing="0em" style="white-space:pre"><tspan x="339.9" y="142">6</tspan></text>
  <path fill="#fff" stroke="#939393" stroke-width=".1" d="M325.1 137a7.7 7.7 0 1 0 0-15.5 7.7 7.7 0 0 0 0 15.5Z"/>
  <text xml:space="preserve" fill="#939393" font-family="TeX Gyre Schola" font-size="6" letter-spacing="0em" style="white-space:pre"><tspan x="323.5" y="132.3">5</tspan></text>
  <path fill="#fff" stroke="#000" stroke-width=".1" d="M225.8 132.2a4.8 4.8 0 1 0 0-9.7 4.8 4.8 0 0 0 0 9.7Z"/>
  <text xml:space="preserve" fill="#000" font-family="TeX Gyre Schola" font-size="6" letter-spacing="0em" style="white-space:pre"><tspan x="224.1" y="130.4">8</tspan></text>
  <path fill="#fff" stroke="#000" stroke-width=".1" d="M136 138a10.6 10.6 0 1 0 0-21.3 10.6 10.6 0 0 0 0 21.2Z"/>
  <text xml:space="preserve" fill="#000" font-family="TeX Gyre Schola" font-size="6" letter-spacing="0em" style="white-space:pre"><tspan x="131.7" y="130.4">100</tspan></text>
  <path fill="#fff" stroke="#939393" stroke-width=".1" d="M307.7 125.4a7.7 7.7 0 1 0 0-15.4 7.7 7.7 0 0 0 0 15.4Z"/>
  <text xml:space="preserve" fill="#939393" font-family="TeX Gyre Schola" font-size="6" letter-spacing="0em" style="white-space:pre"><tspan x="306.1" y="120.7">2</tspan></text>
  <path fill="#fff" stroke="#000" stroke-width=".1" d="M249.4 127.3a10.1 10.1 0 1 0 0-20.2 10.1 10.1 0 0 0 0 20.2Z"/>
  <text xml:space="preserve" fill="#000" font-family="TeX Gyre Schola" font-size="6" letter-spacing="0em" style="white-space:pre"><tspan x="245.2" y="119.8">29</tspan></text>
  <path fill="#fff" stroke="#000" stroke-width=".1" d="M170.8 129.3a13.5 13.5 0 1 0 0-27 13.5 13.5 0 0 0 0 27Z"/>
  <text xml:space="preserve" fill="#000" font-family="TeX Gyre Schola" font-size="6" letter-spacing="0em" style="white-space:pre"><tspan x="166.4" y="118.8">181</tspan></text>
  <path fill="#fff" stroke="#000" stroke-width=".1" d="M70.5 129.3a14.5 14.5 0 1 0 0-29 14.5 14.5 0 0 0 0 29Z"/>
  <text xml:space="preserve" fill="#000" font-family="TeX Gyre Schola" font-size="6" letter-spacing="0em" style="white-space:pre"><tspan x="66.1" y="117.8">263</tspan></text>
  <path fill="#fff" stroke="#000" stroke-width=".1" d="M109 116.7a10.6 10.6 0 1 0 0-21.2 10.6 10.6 0 0 0 0 21.2Z"/>
  <text xml:space="preserve" fill="#000" font-family="TeX Gyre Schola" font-size="6" letter-spacing="0em" style="white-space:pre"><tspan x="105.3" y="109.2">81</tspan></text>
  <path fill="#fff" stroke="#000" stroke-width=".1" d="M25.1 134a19.3 19.3 0 1 0 0-38.5 19.3 19.3 0 0 0 0 38.6Z"/>
  <text xml:space="preserve" fill="#000" font-family="TeX Gyre Schola" font-size="6" letter-spacing="0em" style="white-space:pre"><tspan x="17.7" y="117.8">2500</tspan></text>
  <path fill="#fff" stroke="#000" stroke-width=".1" d="M204.5 113.8a7.7 7.7 0 1 0 0-15.4 7.7 7.7 0 0 0 0 15.4Z"/>
  <text xml:space="preserve" fill="#000" font-family="TeX Gyre Schola" font-size="6" letter-spacing="0em" style="white-space:pre"><tspan x="200.8" y="109.2">21</tspan></text>
  <path fill="#fff" stroke="#000" stroke-width=".1" d="M444.7 111a9.6 9.6 0 1 0 0-19.4 9.6 9.6 0 0 0 0 19.3Z"/>
  <text xml:space="preserve" fill="#000" font-family="TeX Gyre Schola" font-size="6" letter-spacing="0em" style="white-space:pre"><tspan x="443.1" y="104.3">1</tspan></text>
  <path fill="#fff" stroke="#000" stroke-width=".1" d="M414.8 111a9.6 9.6 0 1 0 0-19.4 9.6 9.6 0 0 0 0 19.3Z"/>
  <text xml:space="preserve" fill="#000" font-family="TeX Gyre Schola" font-size="6" letter-spacing="0em" style="white-space:pre"><tspan x="413.2" y="104.3">5</tspan></text>
  <path fill="#fff" stroke="#000" stroke-width=".1" d="M385 111a9.6 9.6 0 1 0 0-19.4 9.6 9.6 0 0 0 0 19.3Z"/>
  <text xml:space="preserve" fill="#000" font-family="TeX Gyre Schola" font-size="6" letter-spacing="0em" style="white-space:pre"><tspan x="381.2" y="104.3">16</tspan></text>
  <path fill="#fff" stroke="#000" stroke-width=".1" d="M290.4 111a9.6 9.6 0 1 0 0-19.4 9.6 9.6 0 0 0 0 19.3Z"/>
  <text xml:space="preserve" fill="#000" font-family="TeX Gyre Schola" font-size="6" letter-spacing="0em" style="white-space:pre"><tspan x="286.7" y="104.3">16</tspan></text>
  <path fill="#fff" stroke="#000" stroke-width=".1" d="M222.4 64.6h6.7a5.3 5.3 0 1 1 0 10.6h-6.7a5.3 5.3 0 1 1 0-10.6Z"/>
  <text xml:space="preserve" fill="#000" font-family="TeX Gyre Schola" font-size="6" letter-spacing="0em" style="white-space:pre"><tspan x="224.1" y="72.5">2</tspan></text>
  <path fill="#fff" stroke="#000" stroke-width=".1" d="M201.2 64.6h6.7a5.3 5.3 0 1 1 0 10.6h-6.7a5.3 5.3 0 1 1 0-10.6Z"/>
  <text xml:space="preserve" fill="#000" font-family="TeX Gyre Schola" font-size="6" letter-spacing="0em" style="white-space:pre"><tspan x="202.9" y="72.5">1</tspan></text>
  <path fill="#fff" stroke="#000" stroke-miterlimit="10" stroke-width=".1" d="m341.5 61.7 7.7 7.8-7.7 7.7-7.7-7.7z"/>
  <text xml:space="preserve" fill="#000" font-family="TeX Gyre Schola" font-size="6" letter-spacing="0em" style="white-space:pre"><tspan x="339.9" y="72.5">4</tspan></text>
  <path fill="#fff" stroke="#000" stroke-miterlimit="10" stroke-width=".1" d="m325.1 61.7 7.7 7.8-7.7 7.7-7.7-7.7z"/>
  <text xml:space="preserve" fill="#000" font-family="TeX Gyre Schola" font-size="6" letter-spacing="0em" style="white-space:pre"><tspan x="323.5" y="72.5">3</tspan></text>
  <path fill="#fff" stroke="#000" stroke-miterlimit="10" stroke-width=".1" d="m307.7 61.7 7.8 7.8-7.8 7.7-7.7-7.7z"/>
  <text xml:space="preserve" fill="#000" font-family="TeX Gyre Schola" font-size="6" letter-spacing="0em" style="white-space:pre"><tspan x="306.1" y="72.5">2</tspan></text>
  <path fill="#fff" stroke="#000" stroke-miterlimit="10" stroke-width=".1" d="m290.4 61.7 7.7 7.8-7.7 7.7-7.7-7.7z"/>
  <text xml:space="preserve" fill="#000" font-family="TeX Gyre Schola" font-size="6" letter-spacing="0em" style="white-space:pre"><tspan x="288.8" y="72.5">1</tspan></text>
  <path fill="#fff" stroke="#000" stroke-width=".1" d="m70.5 61.7 7.7 7.8-7.7 7.7-7.8-7.7z"/>
  <text xml:space="preserve" fill="#000" font-family="TeX Gyre Schola" font-size="6" letter-spacing="0em" style="white-space:pre"><tspan x="68.8" y="72.5">5</tspan></text>
  <path fill="#fff" stroke="#000" stroke-width=".1" d="M140.7 46.3h-9.3a5 5 0 0 0-5 5v13.2a5 5 0 0 0 5 5h9.3a5 5 0 0 0 5-5V51.3a5 5 0 0 0-5-5Z"/>
  <text xml:space="preserve" fill="#000" font-family="TeX Gyre Schola" font-size="6" letter-spacing="0em" style="white-space:pre"><tspan x="133.3" y="60.9">2b</tspan></text>
  <path fill="#fff" stroke="#000" stroke-width=".1" d="M449.4 26H440a5 5 0 0 0-5 5v13.2a5 5 0 0 0 5 5h9.3a5 5 0 0 0 5-5V31a5 5 0 0 0-5-5Z"/>
  <text xml:space="preserve" fill="#000" font-family="TeX Gyre Schola" font-size="6" letter-spacing="0em" style="white-space:pre"><tspan x="440.8" y="40.7">5c</tspan></text>
  <path fill="#fff" stroke="#000" stroke-width=".1" d="M419.5 26h-9.3a5 5 0 0 0-5 5v13.2a5 5 0 0 0 5 5h9.3a5 5 0 0 0 5-5V31a5 5 0 0 0-5-5Z"/>
  <text xml:space="preserve" fill="#000" font-family="TeX Gyre Schola" font-size="6" letter-spacing="0em" style="white-space:pre"><tspan x="412.1" y="40.7">5b</tspan></text>
  <path fill="#fff" stroke="#000" stroke-width=".1" d="M389.6 26h-9.3a5 5 0 0 0-5 5v13.2a5 5 0 0 0 5 5h9.3a5 5 0 0 0 5-5V31a5 5 0 0 0-5-5Z"/>
  <text xml:space="preserve" fill="#000" font-family="TeX Gyre Schola" font-size="6" letter-spacing="0em" style="white-space:pre"><tspan x="382.2" y="40.7">5a</tspan></text>
  <path fill="#fff" stroke="#000" stroke-width=".1" d="M351 26h-71a5 5 0 0 0-5 5v13.2a5 5 0 0 0 5 5h71a5 5 0 0 0 5-5V31a5 5 0 0 0-5-5Z"/>
  <text xml:space="preserve" fill="#000" font-family="TeX Gyre Schola" font-size="6" letter-spacing="0em" style="white-space:pre"><tspan x="313.8" y="40.7">4</tspan></text>
  <path fill="#fff" stroke="#000" stroke-width=".1" d="M254.5 26h-52.7a5 5 0 0 0-5 5v13.2a5 5 0 0 0 5 5h52.7a5 5 0 0 0 5-5V31a5 5 0 0 0-5-5Z"/>
  <text xml:space="preserve" fill="#000" font-family="TeX Gyre Schola" font-size="6" letter-spacing="0em" style="white-space:pre"><tspan x="226.9" y="40.7">3</tspan></text>
  <path fill="#fff" stroke="#000" stroke-width=".1" d="M175.4 26h-9.3a5 5 0 0 0-5 5v13.2a5 5 0 0 0 5 5h9.3a5 5 0 0 0 5-5V31a5 5 0 0 0-5-5Z"/>
  <text xml:space="preserve" fill="#000" font-family="TeX Gyre Schola" font-size="6" letter-spacing="0em" style="white-space:pre"><tspan x="166.9" y="40.7">2c</tspan></text>
  <path fill="#fff" stroke="#000" stroke-width=".1" d="M75.1 26h-9.3a5 5 0 0 0-5 5v13.2a5 5 0 0 0 5 5h9.3a5 5 0 0 0 5-5V31a5 5 0 0 0-5-5Z"/>
  <text xml:space="preserve" fill="#000" font-family="TeX Gyre Schola" font-size="6" letter-spacing="0em" style="white-space:pre"><tspan x="68.8" y="40.7">1</tspan></text>
  <path fill="#fff" stroke="#000" stroke-width=".1" d="M29.8 26h-9.3a5 5 0 0 0-5 5v13.2a5 5 0 0 0 5 5h9.3a5 5 0 0 0 5-5V31a5 5 0 0 0-5-5Z"/>
  <text xml:space="preserve" fill="#000" font-family="TeX Gyre Schola" font-size="6" letter-spacing="0em" style="white-space:pre"><tspan x="23.5" y="40.7">0</tspan></text>
  <path fill="#fff" stroke="#000" stroke-width=".1" d="M113.7 19.3h-9.3a5 5 0 0 0-5 5v13.1a5 5 0 0 0 5 5h9.3a5 5 0 0 0 5-5V24.3a5 5 0 0 0-5-5Z"/>
  <text xml:space="preserve" fill="#000" font-family="TeX Gyre Schola" font-size="6" letter-spacing="0em" style="white-space:pre"><tspan x="106.3" y="33.9">2a</tspan></text>
  <text xml:space="preserve" fill="#000" font-family="TeX Gyre Schola" font-size="6" letter-spacing="0em" style="white-space:pre"><tspan x="32.2" y="158.9">Machine-driven</tspan></text>
  <path fill="#005AAB" d="M25.3 157.9a4.5 4.5 0 0 0-4.5-4.5v4.5z"/>
  <text xml:space="preserve" fill="#000" font-family="TeX Gyre Schola" font-size="6" letter-spacing="0em" style="white-space:pre"><tspan x="163.4" y="158.9">Algorithmic-driven</tspan></text>
  <path fill="#005AAB" d="M156.5 157.9a4.5 4.5 0 0 0-9 0z"/>
  <text xml:space="preserve" fill="#000" font-family="TeX Gyre Schola" font-size="6" letter-spacing="0em" style="white-space:pre"><tspan x="295.1" y="158.9">Collaborative-driven</tspan></text>
  <path fill="#005AAB" d="M290.6 157.9a4.5 4.5 0 1 0-4.5 4.5v-4.5z"/>
  <text xml:space="preserve" fill="#000" font-family="TeX Gyre Schola" font-size="6" letter-spacing="0em" style="white-space:pre"><tspan x="398.3" y="158.9">Contextual-driven</tspan></text>
  <circle cx="389.3" cy="157.9" r="4.5" fill="#005AAB"/>
  <text xml:space="preserve" fill="#000" font-family="TeX Gyre Schola" font-size="6" letter-spacing="0em" style="white-space:pre"><tspan x="436.1" y="5.9">STRO</tspan></text>
  <text xml:space="preserve" fill="#000" font-family="TeX Gyre Schola" font-size="6" letter-spacing="0em" style="white-space:pre"><tspan x="405.1" y="5.9">PTRO</tspan></text>
  <text xml:space="preserve" fill="#000" font-family="TeX Gyre Schola" font-size="6" letter-spacing="0em" style="white-space:pre"><tspan x="163.3" y="5.9">ORA</tspan></text>
  <text xml:space="preserve" fill="#000" font-family="TeX Gyre Schola" font-size="6" letter-spacing="0em" style="white-space:pre"><tspan x="311.1" y="5.9">OPV</tspan></text>
  <text xml:space="preserve" fill="#000" font-family="TeX Gyre Schola" font-size="6" letter-spacing="0em" style="white-space:pre"><tspan x="65" y="5.9">KCI</tspan></text>
  <text xml:space="preserve" fill="#000" font-family="TeX Gyre Schola" font-size="6" letter-spacing="0em" style="white-space:pre"><tspan x="130.6" y="5.9">IOP</tspan></text>
  <text xml:space="preserve" fill="#000" font-family="TeX Gyre Schola" font-size="6" letter-spacing="0em" style="white-space:pre"><tspan x="16.6" y="5.9">ESOG</tspan></text>
  <text xml:space="preserve" fill="#000" font-family="TeX Gyre Schola" font-size="6" letter-spacing="0em" style="white-space:pre"><tspan x="222.9" y="5.9">DSI</tspan></text>
  <text xml:space="preserve" fill="#000" font-family="TeX Gyre Schola" font-size="6" letter-spacing="0em" style="white-space:pre"><tspan x="375.4" y="5.9">CTOI</tspan></text>
  <text xml:space="preserve" fill="#000" font-family="TeX Gyre Schola" font-size="6" letter-spacing="0em" style="white-space:pre"><tspan x="103.5" y="5.9">COI</tspan></text>
  <circle cx="6.5" cy="223.9" r="3.5" stroke="#000" stroke-width=".5"/>
</svg>
